<?xml version="1.0" encoding="UTF-8"?>
<svg xmlns="http://www.w3.org/2000/svg" xmlns:xlink="http://www.w3.org/1999/xlink" width="400.74pt" height="400.74pt"  version="1.1">
<defs>
<clipPath id="clip1">
  <path d="M 1 0 L 1028.738281 0 L 1028.738281 1027.738281 L 1 1027.738281 Z M 1 0 "/>
</clipPath>
<clipPath id="clip2">
  <path d="M 953 140 L 1028.699219 140 L 1028.699219 751 L 953 751 Z M 953 140 "/>
</clipPath>
<clipPath id="clip3">
  <path d="M 953 0.0390625 L 1028.699219 0.0390625 L 1028.699219 100 L 953 100 Z M 953 0.0390625 "/>
</clipPath>
<clipPath id="clip4">
  <path d="M 923 0.0390625 L 1028.699219 0.0390625 L 1028.699219 90 L 923 90 Z M 923 0.0390625 "/>
</clipPath>
<clipPath id="clip5">
  <path d="M 953 92 L 1028.699219 92 L 1028.699219 217 L 953 217 Z M 953 92 "/>
</clipPath>
<clipPath id="clip6">
  <path d="M 730 0.0390625 L 928 0.0390625 L 928 95 L 730 95 Z M 730 0.0390625 "/>
</clipPath>
<clipPath id="clip7">
  <path d="M 966 451 L 1028.699219 451 L 1028.699219 862 L 966 862 Z M 966 451 "/>
</clipPath>
<clipPath id="clip8">
  <path d="M 966 357 L 1028.699219 357 L 1028.699219 425 L 966 425 Z M 966 357 "/>
</clipPath>
<clipPath id="clip9">
  <path d="M 946 286 L 1028.699219 286 L 1028.699219 418 L 946 418 Z M 946 286 "/>
</clipPath>
<clipPath id="clip10">
  <path d="M 966 419 L 1028.699219 419 L 1028.699219 504 L 966 504 Z M 966 419 "/>
</clipPath>
<clipPath id="clip11">
  <path d="M 1 245 L 125 245 L 125 890 L 1 890 Z M 1 245 "/>
</clipPath>
<clipPath id="clip12">
  <path d="M 1 115 L 120 115 L 120 204 L 1 204 Z M 1 115 "/>
</clipPath>
<clipPath id="clip13">
  <path d="M 1 0.0390625 L 143 0.0390625 L 143 192 L 1 192 Z M 1 0.0390625 "/>
</clipPath>
<clipPath id="clip14">
  <path d="M 1 202 L 122 202 L 122 350 L 1 350 Z M 1 202 "/>
</clipPath>
<clipPath id="clip15">
  <path d="M 253.28125 542.460938 L 349.945313 542.460938 L 349.945313 693.007813 L 253.28125 693.007813 Z M 253.28125 542.460938 "/>
</clipPath>
<filter id="alpha" filterUnits="objectBoundingBox" x="0%" y="0%" width="100%" height="100%">
  <feColorMatrix type="matrix" in="SourceGraphic" values="0 0 0 0 1 0 0 0 0 1 0 0 0 0 1 0 0 0 1 0"/>
</filter>
<mask id="mask0">
  <g filter="url(#alpha)">
<rect x="0" y="0" width="1028.74" height="1027.74" style="fill:rgb(0%,0%,0%);fill-opacity:0.899994;stroke:none;"/>
  </g>
</mask>
<clipPath id="clip17">
  <path d="M 0.28125 0.460938 L 96.945313 0.460938 L 96.945313 151.007813 L 0.28125 151.007813 Z M 0.28125 0.460938 "/>
</clipPath>
<clipPath id="clip16">
  <rect width="97" height="152"/>
</clipPath>
<g id="surface7" clip-path="url(#clip16)">
<g clip-path="url(#clip17)" clip-rule="nonzero">
<path style=" stroke:none;fill-rule:nonzero;fill:rgb(100%,100%,100%);fill-opacity:1;" d="M 96.945313 0.921875 C 96.945313 0.921875 46.761719 89.957031 13.691406 114.003906 C 13.691406 114.003906 2.9375 121.175781 0.742188 130.65625 C -1.453125 140.140625 4.90625 146.730469 4.90625 146.730469 L 12.882813 136.089844 L 21.09375 140.484375 L 14.964844 151.007813 C 14.964844 151.007813 26.871094 146.148438 28.953125 138.753906 C 31.035156 131.351563 33.351563 123.371094 38.4375 116.089844 C 43.523438 108.800781 62.601563 101.980469 76.941406 87.296875 C 91.28125 72.613281 96.945313 0.460938 96.945313 0.460938 "/>
</g>
</g>
<clipPath id="clip18">
  <path d="M 343.992188 381.773438 L 424.035156 381.773438 L 424.035156 503.636719 L 343.992188 503.636719 Z M 343.992188 381.773438 "/>
</clipPath>
<mask id="mask1">
  <g filter="url(#alpha)">
<rect x="0" y="0" width="1028.74" height="1027.74" style="fill:rgb(0%,0%,0%);fill-opacity:0.899994;stroke:none;"/>
  </g>
</mask>
<clipPath id="clip20">
  <path d="M 0.992188 0.773438 L 81.035156 0.773438 L 81.035156 122.636719 L 0.992188 122.636719 Z M 0.992188 0.773438 "/>
</clipPath>
<clipPath id="clip19">
  <rect width="82" height="123"/>
</clipPath>
<g id="surface10" clip-path="url(#clip19)">
<g clip-path="url(#clip20)" clip-rule="nonzero">
<path style=" stroke:none;fill-rule:nonzero;fill:rgb(100%,100%,100%);fill-opacity:1;" d="M 56.675781 117.929688 C 49.042969 122.890625 52.570313 115.742188 46.546875 122.636719 C 43.128906 121 39.566406 119.566406 35.90625 118.246094 C 32.570313 115.765625 29.035156 113.617188 25.398438 111.640625 C 20.011719 107.113281 16.683594 108.953125 10.445313 105.859375 C 8.3125 98.851563 3.453125 84.179688 1.628906 73.402344 C -2.660156 48.085938 16.113281 28.511719 16.113281 28.511719 L 7.171875 19.042969 L 29.574219 11.019531 C 40.800781 9.480469 56.914063 1.109375 56.914063 1.109375 C 56.914063 1.109375 52.878906 -2.304688 74.617188 12.679688 C 96.351563 27.671875 56.289063 73.402344 51.832031 97.394531 C 49.585938 109.515625 55.53125 113.871094 56.675781 117.929688 "/>
</g>
</g>
<clipPath id="clip21">
  <path d="M 394.609375 431.488281 L 407.875 431.488281 L 407.875 445.710938 L 394.609375 445.710938 Z M 394.609375 431.488281 "/>
</clipPath>
<mask id="mask2">
  <g filter="url(#alpha)">
<rect x="0" y="0" width="1028.74" height="1027.74" style="fill:rgb(0%,0%,0%);fill-opacity:0.899994;stroke:none;"/>
  </g>
</mask>
<clipPath id="clip23">
  <path d="M 0.609375 0.488281 L 13.875 0.488281 L 13.875 14.710938 L 0.609375 14.710938 Z M 0.609375 0.488281 "/>
</clipPath>
<clipPath id="clip22">
  <rect width="14" height="15"/>
</clipPath>
<g id="surface13" clip-path="url(#clip22)">
<g clip-path="url(#clip23)" clip-rule="nonzero">
<path style=" stroke:none;fill-rule:nonzero;fill:rgb(100%,100%,100%);fill-opacity:1;" d="M 2.347656 0.769531 C 2.347656 0.769531 14.84375 -1.84375 13.8125 8.777344 C 12.777344 19.394531 0.609375 12.527344 0.609375 12.527344 "/>
</g>
</g>
<clipPath id="clip24">
  <path d="M 489.722656 748.722656 L 605.773438 748.722656 L 605.773438 809.921875 L 489.722656 809.921875 Z M 489.722656 748.722656 "/>
</clipPath>
<mask id="mask3">
  <g filter="url(#alpha)">
<rect x="0" y="0" width="1028.74" height="1027.74" style="fill:rgb(0%,0%,0%);fill-opacity:0.899994;stroke:none;"/>
  </g>
</mask>
<clipPath id="clip26">
  <path d="M 0.722656 0.722656 L 116.773438 0.722656 L 116.773438 61.921875 L 0.722656 61.921875 Z M 0.722656 0.722656 "/>
</clipPath>
<clipPath id="clip25">
  <rect width="117" height="62"/>
</clipPath>
<g id="surface16" clip-path="url(#clip25)">
<g clip-path="url(#clip26)" clip-rule="nonzero">
<path style=" stroke:none;fill-rule:nonzero;fill:rgb(100%,100%,100%);fill-opacity:1;" d="M 3.441406 57.097656 C 3.441406 57.097656 -4.140625 48.679688 6.023438 42.136719 C 16.183594 35.605469 43.675781 42.683594 55.789063 39.21875 C 67.90625 35.753906 89.757813 24.152344 96.875 13.820313 C 103.992188 3.484375 104.675781 0.992188 105.585938 2.648438 C 106.488281 4.308594 101.082031 12.851563 101.082031 12.851563 C 101.082031 12.851563 114.785156 -1.679688 113.746094 1.070313 C 112.710938 3.820313 105.246094 12.011719 105.246094 12.011719 C 105.246094 12.011719 115.949219 2.445313 115.894531 4.476563 C 115.839844 6.507813 108.605469 12.292969 108.605469 12.292969 C 108.605469 12.292969 117.734375 6.390625 116.691406 8.367188 C 115.652344 10.335938 110.023438 14.445313 110.023438 14.445313 C 110.023438 14.445313 115.96875 10.492188 115.242188 12.625 C 114.523438 14.753906 109.183594 20.144531 105.945313 22.292969 C 102.710938 24.441406 96.441406 30.355469 92.390625 34.960938 C 88.339844 39.570313 69.628906 58.804688 48.566406 60.953125 C 27.503906 63.105469 11.15625 61.605469 3.441406 57.097656 "/>
</g>
</g>
<clipPath id="clip27">
  <path d="M 462.015625 899.769531 L 504.105469 899.769531 L 504.105469 976.667969 L 462.015625 976.667969 Z M 462.015625 899.769531 "/>
</clipPath>
<mask id="mask4">
  <g filter="url(#alpha)">
<rect x="0" y="0" width="1028.74" height="1027.74" style="fill:rgb(0%,0%,0%);fill-opacity:0.899994;stroke:none;"/>
  </g>
</mask>
<clipPath id="clip29">
  <path d="M 0.015625 0.769531 L 42.105469 0.769531 L 42.105469 77.667969 L 0.015625 77.667969 Z M 0.015625 0.769531 "/>
</clipPath>
<clipPath id="clip28">
  <rect width="43" height="78"/>
</clipPath>
<g id="surface19" clip-path="url(#clip28)">
<g clip-path="url(#clip29)" clip-rule="nonzero">
<path style=" stroke:none;fill-rule:nonzero;fill:rgb(100%,100%,100%);fill-opacity:1;" d="M 11.226563 0.769531 C 11.226563 0.769531 3.558594 6.421875 0.933594 38.511719 C -1.691406 70.605469 2.144531 77.667969 2.144531 77.667969 L 15.464844 77.667969 C 15.464844 77.667969 14.253906 46.179688 20.511719 31.449219 C 26.769531 16.714844 42.105469 0.769531 42.105469 0.769531 "/>
</g>
</g>
<clipPath id="clip30">
  <path d="M 512.878906 893.164063 L 582.621094 893.164063 L 582.621094 950.34375 L 512.878906 950.34375 Z M 512.878906 893.164063 "/>
</clipPath>
<mask id="mask5">
  <g filter="url(#alpha)">
<rect x="0" y="0" width="1028.74" height="1027.74" style="fill:rgb(0%,0%,0%);fill-opacity:0.899994;stroke:none;"/>
  </g>
</mask>
<clipPath id="clip32">
  <path d="M 0.878906 0.164063 L 70.621094 0.164063 L 70.621094 57.34375 L 0.878906 57.34375 Z M 0.878906 0.164063 "/>
</clipPath>
<clipPath id="clip31">
  <rect width="71" height="58"/>
</clipPath>
<g id="surface22" clip-path="url(#clip31)">
<g clip-path="url(#clip32)" clip-rule="nonzero">
<path style=" stroke:none;fill-rule:nonzero;fill:rgb(100%,100%,100%);fill-opacity:1;" d="M 2.804688 11.410156 C 2.804688 11.410156 -8.296875 37.648438 22.785156 48.347656 C 53.867188 59.042969 68.601563 57.226563 68.601563 57.226563 L 70.621094 42.898438 C 70.621094 42.898438 26.824219 38.863281 25.003906 12.21875 C 23.1875 -14.421875 2.804688 11.410156 2.804688 11.410156 "/>
</g>
</g>
<clipPath id="clip33">
  <path d="M 472.613281 700.679688 L 542.765625 700.679688 L 542.765625 779.320313 L 472.613281 779.320313 Z M 472.613281 700.679688 "/>
</clipPath>
<mask id="mask6">
  <g filter="url(#alpha)">
<rect x="0" y="0" width="1028.74" height="1027.74" style="fill:rgb(0%,0%,0%);fill-opacity:0.899994;stroke:none;"/>
  </g>
</mask>
<clipPath id="clip35">
  <path d="M 0.613281 0.679688 L 70.765625 0.679688 L 70.765625 79.320313 L 0.613281 79.320313 Z M 0.613281 0.679688 "/>
</clipPath>
<clipPath id="clip34">
  <rect width="71" height="80"/>
</clipPath>
<g id="surface25" clip-path="url(#clip34)">
<g clip-path="url(#clip35)" clip-rule="nonzero">
<path style=" stroke:none;fill-rule:nonzero;fill:rgb(100%,100%,100%);fill-opacity:1;" d="M 23.847656 4.992188 C 23.847656 4.992188 9.8125 15.417969 2.195313 12.8125 C 2.195313 12.8125 1.894531 18.828125 5.90625 21.535156 L 4.300781 22.535156 C 4.300781 22.535156 5.90625 29.753906 14.523438 28.554688 C 14.523438 28.554688 6.996094 34.164063 2.1875 30.859375 C 2.1875 30.859375 -3.519531 43.789063 6.804688 52.210938 C 17.132813 60.628906 22.34375 64.441406 21.644531 79.277344 C 21.644531 79.277344 54.023438 79.378906 53.722656 79.277344 C 53.421875 79.175781 54.421875 53.714844 54.421875 53.714844 L 70.765625 41.082031 C 70.765625 41.082031 59.335938 19.929688 58.835938 19.027344 C 58.332031 18.128906 54.222656 10.105469 52.820313 8.800781 C 51.417969 7.5 35.691406 0.683594 35.691406 0.683594 "/>
</g>
</g>
<clipPath id="clip36">
  <path d="M 417.453125 789.714844 L 521.714844 789.714844 L 521.714844 872.097656 L 417.453125 872.097656 Z M 417.453125 789.714844 "/>
</clipPath>
<mask id="mask7">
  <g filter="url(#alpha)">
<rect x="0" y="0" width="1028.74" height="1027.74" style="fill:rgb(0%,0%,0%);fill-opacity:0.899994;stroke:none;"/>
  </g>
</mask>
<clipPath id="clip38">
  <path d="M 0.453125 0.714844 L 104.714844 0.714844 L 104.714844 83.097656 L 0.453125 83.097656 Z M 0.453125 0.714844 "/>
</clipPath>
<clipPath id="clip37">
  <rect width="105" height="84"/>
</clipPath>
<g id="surface28" clip-path="url(#clip37)">
<g clip-path="url(#clip38)" clip-rule="nonzero">
<path style=" stroke:none;fill-rule:nonzero;fill:rgb(100%,100%,100%);fill-opacity:1;" d="M 104.710938 7.460938 C 104.710938 7.460938 100.976563 -3.289063 90.179688 2.351563 C 79.382813 7.996094 72.128906 35.441406 63.09375 44.300781 C 54.058594 53.152344 33.023438 66.496094 20.359375 67.621094 C 7.695313 68.746094 5.148438 68.109375 6.175781 69.71875 C 7.199219 71.324219 17.433594 70.808594 17.433594 70.808594 C 17.433594 70.808594 -2.191406 75.609375 0.757813 76.058594 C 3.703125 76.503906 14.636719 74.027344 14.636719 74.027344 C 14.636719 74.027344 0.890625 78.652344 2.71875 79.601563 C 4.546875 80.558594 13.238281 77.09375 13.238281 77.09375 C 13.238281 77.09375 3.511719 82.148438 5.769531 82.214844 C 8.035156 82.273438 14.445313 79.386719 14.445313 79.386719 C 14.445313 79.386719 8.015625 82.628906 10.261719 83.042969 C 12.507813 83.464844 19.910156 81.460938 23.410156 79.695313 C 26.90625 77.933594 35.230469 75.375 41.308594 74.109375 C 47.386719 72.847656 73.644531 65.996094 85.917969 48.691406 C 98.191406 31.386719 104.902344 16.40625 104.710938 7.460938 "/>
</g>
</g>
<clipPath id="clip39">
  <path d="M 623.414063 831.839844 L 675.101563 831.839844 L 675.101563 973.367188 L 623.414063 973.367188 Z M 623.414063 831.839844 "/>
</clipPath>
<mask id="mask8">
  <g filter="url(#alpha)">
<rect x="0" y="0" width="1028.74" height="1027.74" style="fill:rgb(0%,0%,0%);fill-opacity:0.899994;stroke:none;"/>
  </g>
</mask>
<clipPath id="clip41">
  <path d="M 0.414063 0.839844 L 52.101563 0.839844 L 52.101563 142.367188 L 0.414063 142.367188 Z M 0.414063 0.839844 "/>
</clipPath>
<clipPath id="clip40">
  <rect width="53" height="143"/>
</clipPath>
<g id="surface31" clip-path="url(#clip40)">
<g clip-path="url(#clip41)" clip-rule="nonzero">
<path style=" stroke:none;fill-rule:nonzero;fill:rgb(100%,100%,100%);fill-opacity:1;" d="M 14.96875 0.839844 C 14.96875 0.839844 7.351563 43.503906 8.394531 63.972656 C 9.433594 84.4375 3.882813 133.695313 0.414063 139.9375 L 14.96875 142.367188 C 14.96875 142.367188 34.757813 114.960938 43.429688 82.703125 C 52.101563 50.441406 44.128906 28.589844 47.242188 20.957031 C 50.359375 13.324219 52.101563 3.609375 52.101563 3.609375 "/>
</g>
</g>
<clipPath id="clip42">
  <path d="M 740.3125 818.886719 L 834.4375 818.886719 L 834.4375 956.25 L 740.3125 956.25 Z M 740.3125 818.886719 "/>
</clipPath>
<mask id="mask9">
  <g filter="url(#alpha)">
<rect x="0" y="0" width="1028.74" height="1027.74" style="fill:rgb(0%,0%,0%);fill-opacity:0.899994;stroke:none;"/>
  </g>
</mask>
<clipPath id="clip44">
  <path d="M 0.3125 0.886719 L 94.4375 0.886719 L 94.4375 138.25 L 0.3125 138.25 Z M 0.3125 0.886719 "/>
</clipPath>
<clipPath id="clip43">
  <rect width="95" height="139"/>
</clipPath>
<g id="surface34" clip-path="url(#clip43)">
<g clip-path="url(#clip44)" clip-rule="nonzero">
<path style=" stroke:none;fill-rule:nonzero;fill:rgb(100%,100%,100%);fill-opacity:1;" d="M 0.3125 5.28125 C 0.3125 5.28125 23.210938 43.4375 29.222656 56.617188 C 35.234375 69.800781 77.089844 126.226563 79.40625 138.253906 L 94.4375 130.160156 C 94.4375 130.160156 81.023438 79.746094 76.167969 61.9375 C 71.3125 44.132813 61.828125 31.414063 53.964844 24.9375 C 46.105469 18.460938 41.246094 0.886719 41.246094 0.886719 "/>
</g>
</g>
<clipPath id="clip45">
  <path d="M 707.476563 560.574219 L 804.140625 560.574219 L 804.140625 711.121094 L 707.476563 711.121094 Z M 707.476563 560.574219 "/>
</clipPath>
<mask id="mask10">
  <g filter="url(#alpha)">
<rect x="0" y="0" width="1028.74" height="1027.74" style="fill:rgb(0%,0%,0%);fill-opacity:0.899994;stroke:none;"/>
  </g>
</mask>
<clipPath id="clip47">
  <path d="M 0.476563 0.574219 L 97.140625 0.574219 L 97.140625 151.121094 L 0.476563 151.121094 Z M 0.476563 0.574219 "/>
</clipPath>
<clipPath id="clip46">
  <rect width="98" height="152"/>
</clipPath>
<g id="surface37" clip-path="url(#clip46)">
<g clip-path="url(#clip47)" clip-rule="nonzero">
<path style=" stroke:none;fill-rule:nonzero;fill:rgb(100%,100%,100%);fill-opacity:1;" d="M 0.476563 1.035156 C 0.476563 1.035156 50.660156 90.070313 83.730469 114.117188 C 83.730469 114.117188 94.480469 121.292969 96.679688 130.769531 C 98.875 140.253906 92.515625 146.84375 92.515625 146.84375 L 84.539063 136.203125 L 76.328125 140.601563 L 82.457031 151.121094 C 82.457031 151.121094 70.546875 146.261719 68.464844 138.867188 C 66.386719 131.464844 64.070313 123.484375 58.984375 116.203125 C 53.894531 108.917969 34.820313 102.097656 20.480469 87.410156 C 6.140625 72.726563 0.476563 0.574219 0.476563 0.574219 "/>
</g>
</g>
<clipPath id="clip48">
  <path d="M 640.527344 455.121094 L 720.890625 455.121094 L 720.890625 535.945313 L 640.527344 535.945313 Z M 640.527344 455.121094 "/>
</clipPath>
<mask id="mask11">
  <g filter="url(#alpha)">
<rect x="0" y="0" width="1028.74" height="1027.74" style="fill:rgb(0%,0%,0%);fill-opacity:0.899994;stroke:none;"/>
  </g>
</mask>
<clipPath id="clip50">
  <path d="M 0.527344 0.121094 L 80.890625 0.121094 L 80.890625 80.945313 L 0.527344 80.945313 Z M 0.527344 0.121094 "/>
</clipPath>
<clipPath id="clip49">
  <rect width="81" height="81"/>
</clipPath>
<g id="surface40" clip-path="url(#clip49)">
<g clip-path="url(#clip50)" clip-rule="nonzero">
<path style=" stroke:none;fill-rule:nonzero;fill:rgb(100%,100%,100%);fill-opacity:1;" d="M 18.101563 7.984375 L 15.675781 13.1875 L 0.527344 20.472656 L 5.847656 25.675781 C 5.847656 25.675781 -2.59375 39.320313 2.496094 45.5625 C 7.578125 51.808594 21.109375 49.839844 21.570313 60.480469 L 21.570313 80.945313 L 64.816406 80.945313 L 80.890625 35.273438 C 80.890625 35.273438 77.421875 18.390625 76.726563 18.160156 C 76.035156 17.929688 53.832031 5.671875 53.832031 5.671875 L 42.964844 0.121094 "/>
</g>
</g>
<clipPath id="clip51">
  <path d="M 556.257813 546.808594 L 699.320313 546.808594 L 699.320313 716.132813 L 556.257813 716.132813 Z M 556.257813 546.808594 "/>
</clipPath>
<mask id="mask12">
  <g filter="url(#alpha)">
<rect x="0" y="0" width="1028.74" height="1027.74" style="fill:rgb(0%,0%,0%);fill-opacity:0.899994;stroke:none;"/>
  </g>
</mask>
<clipPath id="clip53">
  <path d="M 0.257813 0.808594 L 143.320313 0.808594 L 143.320313 170.132813 L 0.257813 170.132813 Z M 0.257813 0.808594 "/>
</clipPath>
<clipPath id="clip52">
  <rect width="144" height="171"/>
</clipPath>
<g id="surface39" clip-path="url(#clip52)">
<g clip-path="url(#clip53)" clip-rule="nonzero">
<path style=" stroke:none;fill-rule:nonzero;fill:rgb(100%,100%,100%);fill-opacity:1;" d="M 141.992188 8.675781 C 141.992188 8.675781 131.589844 -7.28125 116.324219 6.25 C 101.0625 19.777344 100.367188 67.300781 89.269531 85.339844 C 78.167969 103.378906 49.378906 133.554688 29.257813 140.492188 C 9.140625 147.429688 4.742188 147.429688 7.058594 149.628906 C 9.371094 151.824219 25.789063 146.851563 25.789063 146.851563 C 25.789063 146.851563 -4.160156 162.578125 0.8125 162.113281 C 5.785156 161.652344 22.550781 153.210938 22.550781 153.210938 C 22.550781 153.210938 2.085938 166.277344 5.4375 167.089844 C 8.789063 167.898438 21.511719 158.761719 21.511719 158.761719 C 21.511719 158.761719 7.75 170.902344 11.449219 170.09375 C 15.152344 169.285156 24.402344 162 24.402344 162 C 24.402344 162 15.265625 169.863281 19.082031 169.632813 C 22.898438 169.398438 34.113281 163.152344 39.085938 158.878906 C 44.058594 154.601563 56.546875 147.082031 65.910156 142.574219 C 75.277344 138.066406 115.167969 116.324219 128.117188 83.257813 C 141.070313 50.1875 145.925781 23.132813 141.992188 8.675781 "/>
</g>
</g>
</defs>
<g id="surface1">
<g clip-path="url(#clip1)" clip-rule="nonzero">
<path style=" stroke:none;fill-rule:nonzero;fill:rgb(100%,65.098572%,2.69928%);fill-opacity:1;" d="M 1 1027.738281 L 1028.742188 1027.738281 L 1028.742188 0 L 1 0 Z M 1 1027.738281 "/>
</g>
<g clip-path="url(#clip2)" clip-rule="nonzero">
<path style=" stroke:none;fill-rule:nonzero;fill:rgb(19.999695%,14.099121%,13.699341%);fill-opacity:1;" d="M 1069.019531 743.101563 C 1070.058594 412.96875 953.371094 140.042969 953.371094 140.042969 C 1062.449219 377.660156 1085.230469 640.554688 1089.921875 750.210938 "/>
</g>
<path style=" stroke:none;fill-rule:nonzero;fill:rgb(19.999695%,14.099121%,13.699341%);fill-opacity:1;" d="M 947.601563 129.566406 C 949.402344 135.644531 955.789063 139.113281 961.871094 137.316406 C 967.957031 135.515625 971.417969 129.132813 969.617188 123.050781 C 967.816406 116.96875 961.441406 113.492188 955.355469 115.292969 C 949.269531 117.097656 945.800781 123.480469 947.601563 129.566406 "/>
<path style=" stroke:none;fill-rule:nonzero;fill:rgb(19.999695%,14.099121%,13.699341%);fill-opacity:1;" d="M 929.910156 110.667969 C 931.03125 114.449219 935.011719 116.613281 938.800781 115.492188 C 942.585938 114.371094 944.753906 110.390625 943.628906 106.601563 C 942.511719 102.816406 938.523438 100.652344 934.738281 101.773438 C 930.945313 102.890625 928.792969 106.875 929.910156 110.667969 "/>
<path style=" stroke:none;fill-rule:nonzero;fill:rgb(19.999695%,14.099121%,13.699341%);fill-opacity:1;" d="M 927.433594 138.425781 C 928.796875 143.039063 933.644531 145.667969 938.25 144.304688 C 942.863281 142.941406 945.492188 138.09375 944.128906 133.488281 C 942.765625 128.886719 937.921875 126.25 933.3125 127.613281 C 928.703125 128.980469 926.070313 133.824219 927.433594 138.425781 "/>
<g clip-path="url(#clip3)" clip-rule="nonzero">
<path style=" stroke:none;fill-rule:nonzero;fill:rgb(26.699829%,34.098816%,54.499817%);fill-opacity:1;" d="M 1088.988281 59.445313 L 1086.730469 51.820313 L 1082.171875 53.171875 L 1084.421875 60.796875 L 1050.378906 70.875 L 1048.121094 63.246094 L 1044.058594 64.449219 L 1046.320313 72.070313 L 1009.230469 83.046875 L 997.828125 78.132813 L 1000.089844 85.753906 L 961.921875 97.050781 L 953.847656 99.4375 C 955.597656 53.058594 1027.269531 -3.519531 1087.640625 0.71875 C 1148.019531 4.949219 1167.230469 36.289063 1167.230469 36.289063 L 1141.351563 43.949219 L 1124.558594 48.921875 L 1107.851563 37.277344 L 1114.898438 51.773438 "/>
</g>
<g clip-path="url(#clip4)" clip-rule="nonzero">
<path style=" stroke:none;fill-rule:nonzero;fill:rgb(8.198547%,13.299561%,28.199768%);fill-opacity:1;" d="M 1006.949219 -62.929688 L 1022.191406 -57.671875 L 1009.28125 -33.929688 L 1002.300781 -37.71875 L 1000.03125 -33.53125 L 1007.011719 -29.738281 L 990.054688 1.460938 L 983.074219 -2.339844 L 981.054688 1.378906 L 988.035156 5.179688 L 969.566406 39.167969 L 958.035156 43.757813 L 965.019531 47.550781 L 946.027344 82.511719 L 942.007813 89.917969 C 910.441406 55.882813 921.113281 -34.800781 966.804688 -74.488281 C 1012.488281 -114.191406 1048.238281 -105.621094 1048.238281 -105.621094 L 1027 -66.519531 "/>
</g>
<g clip-path="url(#clip5)" clip-rule="nonzero">
<path style=" stroke:none;fill-rule:nonzero;fill:rgb(8.198547%,13.299561%,28.199768%);fill-opacity:1;" d="M 1117.691406 135.488281 C 1157.390625 181.171875 1148.820313 216.925781 1148.820313 216.925781 L 1109.710938 195.671875 L 1106.121094 175.636719 L 1100.859375 190.867188 L 1077.121094 177.96875 L 1080.910156 170.980469 L 1076.71875 168.710938 L 1072.921875 175.6875 L 1041.730469 158.746094 L 1045.519531 151.757813 L 1041.800781 149.738281 L 1038.011719 156.722656 L 1004.019531 138.257813 L 999.429688 126.722656 L 995.632813 133.703125 L 953.28125 110.6875 C 987.300781 79.121094 1077.980469 89.800781 1117.691406 135.488281 "/>
</g>
<path style=" stroke:none;fill-rule:nonzero;fill:rgb(8.198547%,13.299561%,28.199768%);fill-opacity:1;" d="M 921.703125 108.949219 L 913.628906 111.339844 L 875.464844 122.632813 L 873.210938 115.011719 L 866.324219 125.335938 L 829.226563 136.3125 L 826.972656 128.695313 L 822.917969 129.894531 L 825.175781 137.515625 L 791.121094 147.59375 L 788.871094 139.964844 L 784.304688 141.320313 L 786.558594 148.945313 L 760.640625 156.609375 L 758.667969 140.613281 L 750.988281 159.46875 L 734.195313 164.433594 L 708.3125 172.097656 C 708.3125 172.097656 707.378906 135.347656 755.734375 98.9375 C 804.078125 62.527344 894.992188 70.988281 921.703125 108.949219 "/>
<g clip-path="url(#clip6)" clip-rule="nonzero">
<path style=" stroke:none;fill-rule:nonzero;fill:rgb(26.699829%,34.098816%,54.499817%);fill-opacity:1;" d="M 919.054688 90.488281 L 919.054688 90.492188 L 884.097656 71.5 L 887.894531 64.515625 L 875.714844 66.941406 L 841.722656 48.480469 L 845.515625 41.496094 L 841.800781 39.46875 L 838.003906 46.449219 L 806.808594 29.507813 L 810.597656 22.519531 L 806.410156 20.25 L 802.613281 27.230469 L 778.875 14.328125 L 788.785156 1.628906 L 770.027344 9.53125 L 730.914063 -11.71875 C 730.914063 -11.71875 756.246094 -38.371094 816.179688 -29.921875 C 876.113281 -21.480469 934.414063 48.789063 926.457031 94.519531 "/>
</g>
<path style=" stroke:none;fill-rule:nonzero;fill:rgb(26.699829%,34.098816%,54.499817%);fill-opacity:1;" d="M 805.789063 284.515625 C 806.085938 284.464844 806.363281 284.40625 806.664063 284.355469 C 802.742188 270.851563 800.480469 252.394531 803.867188 228.351563 C 812.3125 168.417969 882.574219 110.113281 928.300781 118.070313 L 905.292969 160.441406 L 898.308594 156.648438 L 900.734375 168.8125 L 882.269531 202.808594 L 875.285156 199.015625 L 873.261719 202.734375 L 880.253906 206.53125 L 863.304688 237.726563 L 856.3125 233.929688 L 854.039063 238.121094 L 861.023438 241.914063 L 848.117188 265.660156 L 835.414063 255.746094 L 843.0625 273.90625 C 842.445313 274.703125 841.855469 275.515625 841.324219 276.382813 C 834.5625 287.453125 826.269531 297.511719 817.988281 307.578125 C 813.621094 300.0625 809.871094 292.199219 805.789063 284.515625 "/>
<g clip-path="url(#clip7)" clip-rule="nonzero">
<path style=" stroke:none;fill-rule:nonzero;fill:rgb(19.999695%,14.099121%,13.699341%);fill-opacity:1;" d="M 1043.851563 856.847656 C 1044.550781 635 966.140625 451.609375 966.140625 451.609375 C 1039.441406 611.277344 1054.738281 787.9375 1057.898438 861.621094 "/>
</g>
<path style=" stroke:none;fill-rule:nonzero;fill:rgb(19.999695%,14.099121%,13.699341%);fill-opacity:1;" d="M 962.265625 444.570313 C 963.472656 448.652344 967.765625 450.984375 971.851563 449.777344 C 975.941406 448.566406 978.265625 444.277344 977.054688 440.191406 C 975.847656 436.101563 971.5625 433.769531 967.472656 434.976563 C 963.386719 436.191406 961.054688 440.480469 962.265625 444.570313 "/>
<path style=" stroke:none;fill-rule:nonzero;fill:rgb(19.999695%,14.099121%,13.699341%);fill-opacity:1;" d="M 950.378906 431.867188 C 951.132813 434.410156 953.804688 435.863281 956.351563 435.109375 C 958.894531 434.359375 960.347656 431.683594 959.59375 429.136719 C 958.84375 426.59375 956.160156 425.140625 953.617188 425.894531 C 951.070313 426.644531 949.621094 429.320313 950.378906 431.867188 "/>
<path style=" stroke:none;fill-rule:nonzero;fill:rgb(19.999695%,14.099121%,13.699341%);fill-opacity:1;" d="M 948.710938 450.523438 C 949.625 453.621094 952.886719 455.386719 955.980469 454.472656 C 959.078125 453.558594 960.847656 450.300781 959.929688 447.203125 C 959.015625 444.109375 955.761719 442.339844 952.660156 443.257813 C 949.5625 444.175781 947.796875 447.429688 948.710938 450.523438 "/>
<g clip-path="url(#clip8)" clip-rule="nonzero">
<path style=" stroke:none;fill-rule:nonzero;fill:rgb(26.699829%,34.098816%,54.499817%);fill-opacity:1;" d="M 1057.28125 397.449219 L 1055.761719 392.328125 L 1052.691406 393.234375 L 1054.199219 398.359375 L 1031.320313 405.128906 L 1029.808594 400.003906 L 1027.078125 400.8125 L 1028.601563 405.933594 L 1003.671875 413.308594 L 996.011719 410.007813 L 997.53125 415.128906 L 971.882813 422.71875 L 966.460938 424.324219 C 967.632813 393.15625 1015.800781 355.140625 1056.359375 357.988281 C 1096.941406 360.832031 1109.851563 381.890625 1109.851563 381.890625 L 1092.460938 387.035156 L 1081.171875 390.378906 L 1069.949219 382.554688 L 1074.691406 392.292969 "/>
</g>
<g clip-path="url(#clip9)" clip-rule="nonzero">
<path style=" stroke:none;fill-rule:nonzero;fill:rgb(8.198547%,13.299561%,28.199768%);fill-opacity:1;" d="M 1002.140625 315.214844 L 1012.378906 318.753906 L 1003.710938 334.707031 L 999.019531 332.15625 L 997.492188 334.972656 L 1002.179688 337.523438 L 990.792969 358.484375 L 986.101563 355.933594 L 984.742188 358.433594 L 989.433594 360.984375 L 977.023438 383.824219 L 969.273438 386.90625 L 973.964844 389.457031 L 961.207031 412.949219 L 958.503906 417.925781 C 937.292969 395.058594 944.464844 334.121094 975.164063 307.449219 C 1005.871094 280.769531 1029.890625 286.53125 1029.890625 286.53125 L 1015.609375 312.808594 "/>
</g>
<g clip-path="url(#clip10)" clip-rule="nonzero">
<path style=" stroke:none;fill-rule:nonzero;fill:rgb(8.198547%,13.299561%,28.199768%);fill-opacity:1;" d="M 1076.550781 448.550781 C 1103.230469 479.246094 1097.46875 503.273438 1097.46875 503.273438 L 1071.191406 488.988281 L 1068.78125 475.527344 L 1065.25 485.761719 L 1049.289063 477.09375 L 1051.839844 472.398438 L 1049.03125 470.871094 L 1046.480469 475.5625 L 1025.511719 464.175781 L 1028.058594 459.480469 L 1025.558594 458.121094 L 1023.011719 462.816406 L 1000.171875 450.40625 L 997.09375 442.65625 L 994.539063 447.347656 L 966.078125 431.882813 C 988.941406 410.671875 1049.871094 417.847656 1076.550781 448.550781 "/>
</g>
<path style=" stroke:none;fill-rule:nonzero;fill:rgb(8.198547%,13.299561%,28.199768%);fill-opacity:1;" d="M 944.859375 430.714844 L 939.433594 432.320313 L 913.789063 439.90625 L 912.273438 434.789063 L 907.648438 441.726563 L 882.71875 449.101563 L 881.203125 443.984375 L 878.480469 444.789063 L 879.996094 449.910156 L 857.113281 456.683594 L 855.605469 451.558594 L 852.53125 452.464844 L 854.046875 457.589844 L 836.632813 462.742188 L 835.304688 451.992188 L 830.148438 464.660156 L 818.863281 468 L 801.46875 473.148438 C 801.46875 473.148438 800.84375 448.453125 833.335938 423.988281 C 865.820313 399.519531 926.914063 405.203125 944.859375 430.714844 "/>
<path style=" stroke:none;fill-rule:nonzero;fill:rgb(26.699829%,34.098816%,54.499817%);fill-opacity:1;" d="M 943.078125 418.3125 L 919.589844 405.550781 L 922.144531 400.855469 L 913.957031 402.488281 L 891.113281 390.078125 L 893.664063 385.390625 L 891.167969 384.027344 L 888.617188 388.71875 L 867.652344 377.332031 L 870.203125 372.640625 L 867.390625 371.109375 L 864.839844 375.800781 L 848.886719 367.132813 L 855.542969 358.601563 L 842.9375 363.910156 L 816.65625 349.632813 C 816.65625 349.632813 833.679688 331.726563 873.953125 337.398438 C 914.226563 343.070313 953.402344 390.289063 948.054688 421.015625 "/>
<path style=" stroke:none;fill-rule:nonzero;fill:rgb(26.699829%,34.098816%,54.499817%);fill-opacity:1;" d="M 866.972656 548.691406 C 867.171875 548.65625 867.359375 548.617188 867.558594 548.582031 C 864.925781 539.507813 863.40625 527.105469 865.679688 510.949219 C 871.355469 470.675781 918.566406 431.496094 949.292969 436.847656 L 933.832031 465.316406 L 929.140625 462.765625 L 930.773438 470.941406 L 918.363281 493.785156 L 913.671875 491.234375 L 912.308594 493.734375 L 917.007813 496.285156 L 905.617188 517.246094 L 900.921875 514.695313 L 899.394531 517.511719 L 904.089844 520.0625 L 895.414063 536.019531 L 886.878906 529.359375 L 892.019531 541.5625 C 891.605469 542.09375 891.210938 542.640625 890.851563 543.226563 C 886.308594 550.660156 880.734375 557.421875 875.167969 564.1875 C 872.234375 559.136719 869.714844 553.851563 866.972656 548.691406 "/>
<g clip-path="url(#clip11)" clip-rule="nonzero">
<path style=" stroke:none;fill-rule:nonzero;fill:rgb(19.999695%,14.099121%,13.699341%);fill-opacity:1;" d="M -5.664063 889.132813 C -25.886719 520.644531 124.761719 245.085938 124.761719 245.085938 C 42.023438 505.488281 36.453125 569.03125 -5.664063 889.132813 "/>
</g>
<path style=" stroke:none;fill-rule:nonzero;fill:rgb(19.999695%,14.099121%,13.699341%);fill-opacity:1;" d="M 129.402344 233.480469 C 128.316406 240.015625 122.132813 244.429688 115.597656 243.34375 C 109.050781 242.253906 104.648438 236.074219 105.738281 229.539063 C 106.824219 222.996094 112.992188 218.578125 119.535156 219.667969 C 126.074219 220.761719 130.492188 226.9375 129.402344 233.480469 "/>
<path style=" stroke:none;fill-rule:nonzero;fill:rgb(19.999695%,14.099121%,13.699341%);fill-opacity:1;" d="M 145.332031 211.613281 C 144.652344 215.679688 140.804688 218.433594 136.730469 217.757813 C 132.660156 217.078125 129.90625 213.222656 130.585938 209.152344 C 131.261719 205.085938 135.117188 202.332031 139.1875 203.007813 C 143.265625 203.683594 146.007813 207.539063 145.332031 211.613281 "/>
<path style=" stroke:none;fill-rule:nonzero;fill:rgb(19.999695%,14.099121%,13.699341%);fill-opacity:1;" d="M 151.453125 240.089844 C 150.632813 245.046875 145.941406 248.390625 140.988281 247.570313 C 136.027344 246.746094 132.679688 242.058594 133.507813 237.101563 C 134.332031 232.152344 139.015625 228.800781 143.976563 229.628906 C 148.929688 230.453125 152.28125 235.144531 151.453125 240.089844 "/>
<g clip-path="url(#clip12)" clip-rule="nonzero">
<path style=" stroke:none;fill-rule:nonzero;fill:rgb(26.699829%,34.098816%,54.499817%);fill-opacity:1;" d="M -26.21875 178.839844 L -24.847656 170.644531 L -19.941406 171.460938 L -21.304688 179.65625 L 15.296875 185.753906 L 16.664063 177.554688 L 21.023438 178.28125 L 19.660156 186.472656 L 59.535156 193.113281 L 70.730469 186.558594 L 69.363281 194.75 L 110.390625 201.585938 L 119.070313 203.027344 C 111.324219 155.148438 29.746094 105.636719 -32.324219 117.757813 C -94.410156 129.875 -110.328125 164.835938 -110.328125 164.835938 L -82.503906 169.464844 L -64.449219 172.472656 L -48.617188 158.261719 L -54.074219 174.195313 "/>
</g>
<g clip-path="url(#clip13)" clip-rule="nonzero">
<path style=" stroke:none;fill-rule:nonzero;fill:rgb(8.198547%,13.299561%,28.199768%);fill-opacity:1;" d="M 43.21875 41.414063 L 28.089844 48.820313 L 44.511719 71.796875 L 51.269531 66.96875 L 54.164063 71.027344 L 47.40625 75.851563 L 68.976563 106.039063 L 75.734375 101.207031 L 78.308594 104.8125 L 71.550781 109.644531 L 95.054688 142.53125 L 107.601563 145.8125 L 100.84375 150.644531 L 125.015625 184.472656 L 130.132813 191.640625 C 158.519531 152.304688 135.847656 59.617188 83.382813 24.289063 C 30.914063 -11.039063 -5.070313 2.421875 -5.070313 2.421875 L 21.96875 40.265625 "/>
</g>
<g clip-path="url(#clip14)" clip-rule="nonzero">
<path style=" stroke:none;fill-rule:nonzero;fill:rgb(8.198547%,13.299561%,28.199768%);fill-opacity:1;" d="M -46.25 261.382813 C -81.582031 313.84375 -68.117188 349.828125 -68.117188 349.828125 L -30.273438 322.78125 L -29.117188 301.546875 L -21.710938 316.664063 L 1.261719 300.25 L -3.5625 293.488281 L 0.492188 290.597656 L 5.320313 297.347656 L 35.507813 275.785156 L 30.679688 269.023438 L 34.28125 266.449219 L 39.109375 273.210938 L 72 249.710938 L 75.28125 237.160156 L 80.113281 243.914063 L 121.097656 214.625 C 81.773438 186.238281 -10.914063 208.914063 -46.25 261.382813 "/>
</g>
<path style=" stroke:none;fill-rule:nonzero;fill:rgb(8.198547%,13.299561%,28.199768%);fill-opacity:1;" d="M 153.625 208.78125 L 162.308594 210.230469 L 203.335938 217.058594 L 204.695313 208.863281 L 213.160156 218.695313 L 253.042969 225.332031 L 254.40625 217.140625 L 258.765625 217.867188 L 257.398438 226.058594 L 294.003906 232.160156 L 295.363281 223.960938 L 300.273438 224.777344 L 298.910156 232.972656 L 326.773438 237.609375 L 326.773438 220.765625 L 337.148438 239.339844 L 355.199219 242.34375 L 383.027344 246.976563 C 383.027344 246.976563 379.296875 208.742188 324.484375 177.167969 C 269.683594 145.585938 176.472656 165.992188 153.625 208.78125 "/>
<path style=" stroke:none;fill-rule:nonzero;fill:rgb(26.699829%,34.098816%,54.499817%);fill-opacity:1;" d="M 154.011719 189.300781 L 187.839844 165.128906 L 183.007813 158.371094 L 195.949219 159.332031 L 228.84375 135.832031 L 224.015625 129.074219 L 227.613281 126.496094 L 232.441406 133.25 L 262.628906 111.6875 L 257.804688 104.929688 L 261.855469 102.03125 L 266.6875 108.789063 L 289.660156 92.371094 L 277.757813 80.46875 L 298.222656 86.261719 L 336.066406 59.222656 C 336.066406 59.222656 306.386719 34.820313 245.304688 51.25 C 184.222656 67.675781 132.742188 148.011719 146.847656 194.421875 "/>
<path style=" stroke:none;fill-rule:nonzero;fill:rgb(26.699829%,34.098816%,54.499817%);fill-opacity:1;" d="M 296.3125 376.046875 C 295.996094 376.03125 295.703125 376.007813 295.382813 375.992188 C 297.722656 361.484375 297.707031 342.050781 291.117188 317.550781 C 274.691406 256.46875 194.355469 204.984375 147.949219 219.089844 L 177.234375 260.089844 L 183.992188 255.261719 L 183.03125 268.191406 L 206.53125 301.085938 L 213.289063 296.257813 L 215.867188 299.855469 L 209.101563 304.691406 L 230.671875 334.875 L 237.4375 330.046875 L 240.332031 334.101563 L 233.570313 338.925781 L 249.992188 361.90625 L 261.902344 350 L 256.296875 369.8125 C 257.035156 370.558594 257.75 371.324219 258.414063 372.15625 C 266.84375 382.773438 276.730469 392.144531 286.609375 401.527344 C 290.175781 393.175781 293.058594 384.539063 296.3125 376.046875 "/>
<g clip-path="url(#clip15)" clip-rule="nonzero">
<use xlink:href="#surface7" transform="matrix(1,0,0,1,253,542)" mask="url(#mask0)"/>
</g>
<path style=" stroke:none;fill-rule:nonzero;fill:rgb(7.499695%,11.399841%,23.098755%);fill-opacity:1;" d="M 176.273438 784.132813 C 176.273438 784.132813 208.183594 794.765625 202.636719 808.644531 C 197.085938 822.519531 132.792969 970.058594 111.058594 967.746094 C 89.320313 965.433594 53.242188 943.699219 57.40625 927.972656 C 61.570313 912.242188 126.78125 799.855469 126.78125 799.855469 C 126.78125 799.855469 140.195313 764.238281 176.273438 784.132813 "/>
<path style=" stroke:none;fill-rule:nonzero;fill:rgb(7.499695%,11.399841%,23.098755%);fill-opacity:1;" d="M 98.570313 967.746094 C 98.570313 974.644531 104.160156 980.234375 111.058594 980.234375 C 117.953125 980.234375 123.546875 974.644531 123.546875 967.746094 C 123.546875 960.851563 117.953125 955.257813 111.058594 955.257813 C 104.160156 955.257813 98.570313 960.851563 98.570313 967.746094 "/>
<path style=" stroke:none;fill-rule:nonzero;fill:rgb(40.39917%,28.599548%,42.698669%);fill-opacity:1;" d="M 186.207031 788.289063 L 91.625 962.21875 L 86.738281 959.984375 L 182.441406 786.550781 Z M 186.207031 788.289063 "/>
<path style=" stroke:none;fill-rule:nonzero;fill:rgb(40.39917%,28.599548%,42.698669%);fill-opacity:1;" d="M 174.457031 782.789063 L 79.875 956.71875 L 74.988281 954.484375 L 170.691406 781.050781 Z M 174.457031 782.789063 "/>
<path style=" stroke:none;fill-rule:nonzero;fill:rgb(7.499695%,11.399841%,23.098755%);fill-opacity:1;" d="M 274.09375 682.484375 L 194.90625 808.636719 L 188.757813 800.773438 L 265.882813 678.089844 Z M 274.09375 682.484375 "/>
<path style=" stroke:none;fill-rule:nonzero;fill:rgb(4.299927%,5.899048%,10.198975%);fill-opacity:1;" d="M 298.3125 440.21875 C 298.3125 439.960938 326.410156 418.191406 326.410156 418.191406 L 350.171875 425.253906 L 349.320313 427.296875 L 327.1875 420.621094 L 301 441 "/>
<path style=" stroke:none;fill-rule:nonzero;fill:rgb(7.798767%,10.998535%,25.099182%);fill-opacity:1;" d="M 282.328125 425.273438 C 283.714844 424.558594 322.796875 441.347656 322.796875 441.347656 L 285.5625 490.953125 L 267.828125 479.15625 "/>
<path style=" stroke:none;fill-rule:nonzero;fill:rgb(7.499695%,11.399841%,23.098755%);fill-opacity:1;" d="M 368.121094 674.039063 C 368.121094 674.039063 347.078125 774.636719 375.984375 837.769531 C 404.890625 900.898438 480.511719 949.464844 480.511719 949.464844 L 497.855469 936.285156 C 497.855469 936.285156 422.929688 844.707031 420.847656 807.9375 C 418.765625 771.164063 425.703125 674.039063 425.703125 674.039063 "/>
<path style=" stroke:none;fill-rule:nonzero;fill:rgb(7.499695%,11.399841%,23.098755%);fill-opacity:1;" d="M 334.820313 674.039063 L 241.855469 961.261719 L 262.671875 964.726563 C 262.671875 964.726563 345.230469 811.40625 368.816406 742.722656 C 392.402344 674.039063 386.855469 658.773438 386.855469 658.773438 L 379.914063 653.226563 "/>
<g clip-path="url(#clip18)" clip-rule="nonzero">
<use xlink:href="#surface10" transform="matrix(1,0,0,1,343,381)" mask="url(#mask1)"/>
</g>
<path style=" stroke:none;fill-rule:nonzero;fill:rgb(7.798767%,10.998535%,25.099182%);fill-opacity:1;" d="M 393.253906 390.914063 C 393.253906 390.914063 378.476563 406.78125 394.128906 423.355469 C 409.777344 439.925781 399.953125 464.019531 399.953125 464.019531 C 399.953125 464.019531 414.894531 467.257813 422.519531 442.734375 C 430.136719 418.21875 428.222656 385.425781 397.695313 376.707031 C 367.175781 367.992188 373.972656 358.964844 373.972656 358.964844 C 373.972656 358.964844 366.703125 381.0625 393.253906 390.914063 "/>
<path style=" stroke:none;fill-rule:nonzero;fill:rgb(4.299927%,5.899048%,10.198975%);fill-opacity:1;" d="M 373.042969 402.902344 C 373.042969 402.902344 366.1875 410.410156 378.964844 417.367188 C 378.964844 417.367188 369.878906 412.691406 373.042969 402.902344 "/>
<g clip-path="url(#clip21)" clip-rule="nonzero">
<use xlink:href="#surface13" transform="matrix(1,0,0,1,394,431)" mask="url(#mask2)"/>
</g>
<path style=" stroke:none;fill-rule:nonzero;fill:rgb(7.499695%,11.399841%,23.098755%);fill-opacity:1;" d="M 351.125 478.394531 C 351.125 478.394531 381.304688 483.945313 394.832031 478.394531 C 394.832031 478.394531 407.898438 481.402344 414.835938 537.828125 C 421.773438 594.253906 429.171875 676.582031 429.171875 676.582031 C 429.171875 676.582031 351.472656 702.023438 322.796875 676.582031 C 322.796875 676.582031 339.449219 526.730469 343.148438 507.304688 C 346.847656 487.878906 351.125 478.394531 351.125 478.394531 "/>
<path style=" stroke:none;fill-rule:nonzero;fill:rgb(7.499695%,11.399841%,23.098755%);fill-opacity:1;" d="M 241.855469 961.257813 L 262.671875 964.726563 L 256.191406 984.847656 L 248.792969 983.691406 L 251.105469 975.597656 C 251.105469 975.597656 244.863281 974.902344 241.855469 980.683594 C 238.851563 986.464844 213.871094 987.160156 198.84375 986.699219 C 198.84375 986.699219 205.78125 975.367188 217.574219 975.132813 C 229.367188 974.902344 234.6875 970.277344 236.769531 967.734375 C 238.851563 965.195313 241.855469 961.257813 241.855469 961.257813 "/>
<path style=" stroke:none;fill-rule:nonzero;fill:rgb(7.499695%,11.399841%,23.098755%);fill-opacity:1;" d="M 480.511719 949.464844 L 497.855469 936.285156 C 497.855469 936.285156 502.019531 939.753906 502.886719 945.304688 C 503.753906 950.855469 506.875 961.953125 506.875 961.953125 L 499.242188 965.941406 L 496.640625 953.976563 C 496.640625 953.976563 491.4375 952.066406 488.316406 963.863281 C 485.195313 975.65625 482.421875 986.929688 476.523438 987.796875 C 470.625 988.664063 463.339844 990.050781 463.339844 990.050781 C 463.339844 990.050781 460.394531 983.632813 466.117188 979.992188 C 471.839844 976.347656 481.898438 962.996094 480.511719 949.464844 "/>
<path style=" stroke:none;fill-rule:nonzero;fill:rgb(40.39917%,28.599548%,42.698669%);fill-opacity:1;" d="M 404.136719 490.953125 C 404.136719 490.953125 344.707031 495.289063 350.171875 547.40625 C 355.636719 599.527344 424.640625 628.703125 424.640625 628.703125 L 424.035156 621.265625 C 424.035156 621.265625 359.105469 589.121094 355.402344 547.492188 C 351.703125 505.867188 406.265625 496.460938 406.265625 496.460938 "/>
<path style=" stroke:none;fill-rule:nonzero;fill:rgb(100%,100%,100%);fill-opacity:1;" d="M 356.125 540.402344 C 356.125 540.402344 356.820313 549.769531 348.492188 546.992188 C 340.167969 544.21875 315.886719 471.71875 315.886719 471.71875 C 315.886719 471.71875 318.777344 458.304688 307.445313 454.144531 C 296.113281 449.980469 271.136719 444.894531 270.214844 447.089844 C 269.289063 449.285156 275.535156 449.863281 275.535156 449.863281 L 275.242188 451.484375 C 275.242188 451.484375 267.035156 451.253906 268.710938 453.679688 C 270.386719 456.109375 275.417969 456.339844 275.417969 456.339844 L 275.070313 457.671875 C 275.070313 457.671875 266.457031 457.382813 268.019531 459.925781 C 269.578125 462.46875 273.394531 462.585938 273.394531 462.585938 L 273.394531 464.320313 C 273.394531 464.320313 266.570313 465.242188 268.882813 468.195313 C 271.199219 471.140625 284.320313 468.597656 290.042969 469.289063 C 295.769531 469.984375 299.121094 490.335938 301.664063 501.667969 C 304.210938 513 322.246094 599.488281 361.558594 596.714844 C 400.875 593.9375 396.246094 545.144531 396.246094 545.144531 "/>
<path style=" stroke:none;fill-rule:nonzero;fill:rgb(40.39917%,28.599548%,42.698669%);fill-opacity:1;" d="M 401.242188 485.1875 C 401.242188 485.1875 431.488281 470.121094 438.425781 478.398438 C 445.363281 486.675781 454.613281 471.191406 466.636719 480.550781 C 478.664063 489.910156 488.839844 516.273438 487.914063 538.011719 C 486.988281 559.75 478.78125 596.753906 487.972656 610.628906 C 497.164063 624.503906 475.425781 642.539063 454.613281 644.851563 C 433.800781 647.167969 428.011719 651.117188 424.035156 635.140625 C 420.0625 619.160156 415.398438 515.152344 401.242188 485.1875 "/>
<path style=" stroke:none;fill-rule:nonzero;fill:rgb(7.499695%,11.399841%,23.098755%);fill-opacity:1;" d="M 407.40625 504.871094 C 407.40625 504.871094 448.855469 510.71875 478.328125 495.980469 L 479.0625 497.453125 C 479.0625 497.453125 447.730469 514.71875 407.40625 506.015625 "/>
<path style=" stroke:none;fill-rule:nonzero;fill:rgb(7.499695%,11.399841%,23.098755%);fill-opacity:1;" d="M 454.648438 623.058594 C 439.613281 630.320313 429.808594 597.308594 432.640625 575.082031 C 435.476563 552.855469 451.597656 561.070313 451.597656 561.070313 C 462.714844 564.445313 469.683594 615.796875 454.648438 623.058594 M 451.835938 559.824219 C 451.835938 559.824219 434.722656 551.195313 431.71875 574.550781 C 428.710938 597.90625 439.117188 632.59375 455.074219 624.960938 C 471.03125 617.332031 463.628906 563.371094 451.835938 559.824219 "/>
<path style=" stroke:none;fill-rule:nonzero;fill:rgb(7.499695%,11.399841%,23.098755%);fill-opacity:1;" d="M 431.890625 590.042969 L 462.878906 587.097656 L 463.109375 588.570313 L 432.296875 591.605469 Z M 431.890625 590.042969 "/>
<path style=" stroke:none;fill-rule:nonzero;fill:rgb(7.499695%,11.399841%,23.098755%);fill-opacity:1;" d="M 446.171875 589.695313 L 450.9375 625.371094 L 452.933594 624.847656 L 447.5 589.695313 Z M 446.171875 589.695313 "/>
<g clip-path="url(#clip24)" clip-rule="nonzero">
<use xlink:href="#surface16" transform="matrix(1,0,0,1,489,748)" mask="url(#mask3)"/>
</g>
<g clip-path="url(#clip27)" clip-rule="nonzero">
<use xlink:href="#surface19" transform="matrix(1,0,0,1,462,899)" mask="url(#mask4)"/>
</g>
<g clip-path="url(#clip30)" clip-rule="nonzero">
<use xlink:href="#surface22" transform="matrix(1,0,0,1,512,893)" mask="url(#mask5)"/>
</g>
<path style=" stroke:none;fill-rule:nonzero;fill:rgb(8.198547%,10.998535%,25.099182%);fill-opacity:1;" d="M 464.144531 976.667969 L 478.070313 976.667969 C 478.070313 976.667969 479.886719 990.796875 476.457031 991.605469 C 473.027344 992.414063 471.347656 989.992188 471.347656 989.992188 C 471.347656 989.992188 463.136719 992.410156 461.117188 994.429688 C 459.101563 996.449219 441.335938 994.429688 441.335938 994.429688 C 441.335938 994.429688 444.363281 988.265625 451.628906 986 C 458.894531 983.734375 464.144531 976.667969 464.144531 976.667969 "/>
<path style=" stroke:none;fill-rule:nonzero;fill:rgb(8.198547%,10.998535%,25.099182%);fill-opacity:1;" d="M 579.410156 949.808594 L 581.867188 936.101563 C 581.867188 936.101563 596.09375 936.800781 596.285156 940.324219 C 596.476563 943.84375 593.796875 945.066406 593.796875 945.066406 C 593.796875 945.066406 594.730469 953.578125 596.363281 955.921875 C 597.992188 958.261719 592.878906 975.386719 592.878906 975.386719 C 592.878906 975.386719 587.339844 971.324219 586.390625 963.769531 C 585.441406 956.21875 579.410156 949.808594 579.410156 949.808594 "/>
<g clip-path="url(#clip33)" clip-rule="nonzero">
<use xlink:href="#surface25" transform="matrix(1,0,0,1,472,700)" mask="url(#mask6)"/>
</g>
<path style=" stroke:none;fill-rule:nonzero;fill:rgb(50.19989%,25.099182%,38.798523%);fill-opacity:1;" d="M 493.644531 779.277344 C 493.644531 779.277344 477.003906 808.847656 459.359375 851.757813 C 441.714844 894.660156 444.121094 891.585938 441.179688 917.25 C 441.179688 917.25 451.972656 911.972656 462.980469 915.445313 C 488.898438 923.625 529.542969 930.683594 553.203125 921.0625 C 576.863281 911.4375 596.109375 921.0625 596.109375 921.0625 C 596.109375 921.0625 603.328125 914.648438 572.449219 889.785156 C 541.574219 864.921875 531.136719 787.019531 531.136719 787.019531 L 525.722656 779.277344 "/>
<path style=" stroke:none;fill-rule:nonzero;fill:rgb(8.198547%,10.998535%,25.099182%);fill-opacity:1;" d="M 504.570313 709.507813 C 504.570313 709.507813 498.050781 719.632813 509.28125 728.652344 C 509.28125 728.652344 515.296875 724.441406 518.402344 728.652344 C 521.511719 732.863281 515.796875 737.976563 506.273438 742.6875 C 496.75 747.398438 496.046875 759.628906 502.066406 770.152344 C 508.078125 780.679688 515.996094 787.695313 543.363281 781.582031 C 570.734375 775.46875 570.734375 752.410156 556.496094 736.972656 C 542.261719 721.535156 539.054688 715.621094 533.238281 701.984375 C 527.425781 688.351563 490.234375 682.039063 486.625 696.675781 C 483.015625 711.308594 488.027344 713.113281 504.570313 709.507813 "/>
<path style=" stroke:none;fill-rule:nonzero;fill:rgb(8.198547%,10.998535%,25.099182%);fill-opacity:1;" d="M 528.605469 784.535156 C 528.605469 784.535156 540.785156 779.988281 545.488281 794.480469 C 550.1875 808.976563 566.25 839.925781 566.25 851.675781 C 566.25 863.433594 547.691406 871.363281 537.996094 848.003906 C 528.300781 824.644531 528.605469 784.535156 528.605469 784.535156 "/>
<path style=" stroke:none;fill-rule:nonzero;fill:rgb(8.198547%,10.998535%,25.099182%);fill-opacity:1;" d="M 531.53125 793.5 C 531.53125 793.5 514.046875 776.160156 500.679688 789.824219 C 487.308594 803.492188 502.441406 836.253906 539.316406 839.042969 L 537.996094 834.195313 C 537.996094 834.195313 504.644531 826.410156 502.738281 802.316406 C 500.824219 778.222656 530.355469 798.203125 530.503906 799.960938 C 530.648438 801.726563 534.324219 798.203125 534.324219 798.203125 "/>
<g clip-path="url(#clip36)" clip-rule="nonzero">
<use xlink:href="#surface28" transform="matrix(1,0,0,1,417,789)" mask="url(#mask7)"/>
</g>
<path style=" stroke:none;fill-rule:nonzero;fill:rgb(8.198547%,10.998535%,25.099182%);fill-opacity:1;" d="M 492.59375 714.0625 C 492.308594 715.363281 492.417969 716.488281 493.242188 717.5625 C 494.242188 718.871094 495.78125 719.140625 497.308594 719.273438 C 498.152344 719.347656 498.179688 718.03125 497.335938 717.957031 C 496.160156 717.855469 495.292969 717.714844 494.398438 716.875 C 493.6875 716.214844 493.664063 715.316406 493.855469 714.425781 C 494.03125 713.605469 492.769531 713.230469 492.59375 714.0625 "/>
<g clip-path="url(#clip39)" clip-rule="nonzero">
<use xlink:href="#surface31" transform="matrix(1,0,0,1,623,831)" mask="url(#mask8)"/>
</g>
<g clip-path="url(#clip42)" clip-rule="nonzero">
<use xlink:href="#surface34" transform="matrix(1,0,0,1,740,818)" mask="url(#mask9)"/>
</g>
<path style=" stroke:none;fill-rule:nonzero;fill:rgb(8.198547%,10.998535%,25.099182%);fill-opacity:1;" d="M 622.375 963.421875 L 645.730469 964 L 639.488281 986.664063 L 633.011719 986.664063 C 633.011719 986.664063 636.132813 976.144531 633.472656 976.027344 C 630.8125 975.910156 622.949219 986.664063 622.949219 986.664063 L 592.425781 986.664063 C 592.425781 986.664063 595.664063 979.839844 603.066406 980.417969 C 610.464844 981 615.4375 978.453125 617.402344 975.042969 C 619.367188 971.632813 622.375 963.421875 622.375 963.421875 "/>
<path style=" stroke:none;fill-rule:nonzero;fill:rgb(7.798767%,10.998535%,25.099182%);fill-opacity:1;" d="M 817.789063 951.808594 L 834.4375 941.625 L 843.683594 962.09375 L 840.390625 964.867188 C 840.390625 964.867188 835.1875 955.441406 833.105469 956.253906 C 831.023438 957.0625 829.289063 965.5625 828.941406 974.234375 C 828.597656 982.90625 802.925781 986.894531 800.671875 985.679688 C 798.417969 984.46875 806.050781 980.128906 808.132813 978.050781 C 810.210938 975.96875 817.148438 971.804688 818.015625 964.867188 C 818.882813 957.929688 817.789063 951.808594 817.789063 951.808594 "/>
<g clip-path="url(#clip45)" clip-rule="nonzero">
<use xlink:href="#surface37" transform="matrix(1,0,0,1,707,560)" mask="url(#mask10)"/>
</g>
<g clip-path="url(#clip48)" clip-rule="nonzero">
<use xlink:href="#surface40" transform="matrix(1,0,0,1,640,455)" mask="url(#mask11)"/>
</g>
<path style=" stroke:none;fill-rule:nonzero;fill:rgb(7.798767%,10.998535%,25.099182%);fill-opacity:1;" d="M 660.230469 468.882813 C 660.230469 468.882813 659.539063 473.527344 668.265625 473 C 668.265625 473 658.964844 475.324219 660.230469 468.882813 "/>
<path style=" stroke:none;fill-rule:nonzero;fill:rgb(7.798767%,10.998535%,25.099182%);fill-opacity:1;" d="M 651.859375 449.746094 C 651.859375 449.746094 642.839844 456.683594 649.777344 462.578125 C 656.714844 468.476563 672.5 467.089844 674.925781 477.496094 C 677.355469 487.902344 681.515625 484.78125 685.679688 483.566406 C 689.84375 482.351563 692.097656 489.808594 683.425781 493.800781 C 674.753906 497.789063 670.9375 524.324219 701.8125 539.066406 C 732.683594 553.808594 741.527344 555.195313 743.609375 572.542969 C 745.691406 589.886719 752.453125 603.414063 763.730469 607.75 C 775.003906 612.085938 825.128906 597.34375 837.09375 611.21875 C 849.0625 625.09375 877.855469 583.46875 852.183594 558.320313 C 826.515625 533.171875 817.84375 551.207031 812.640625 524.84375 C 807.4375 498.480469 801.714844 459.457031 772.746094 464.660156 C 743.78125 469.863281 740.140625 468.476563 730.253906 458.9375 C 720.371094 449.398438 719.503906 439.859375 695.738281 443.328125 C 671.980469 446.796875 667.296875 449.917969 662.265625 448.183594 C 657.234375 446.449219 656.195313 446.621094 651.859375 449.746094 "/>
<path style=" stroke:none;fill-rule:nonzero;fill:rgb(8.198547%,10.998535%,25.099182%);fill-opacity:1;" d="M 661.570313 535.945313 C 661.570313 535.945313 661.800781 546.003906 660.761719 548.320313 C 659.71875 550.632813 638.675781 572.253906 637.984375 580.347656 C 637.289063 588.441406 659.140625 600.582031 658.679688 618.386719 C 658.21875 636.195313 648.742188 668.109375 649.78125 667.648438 C 650.816406 667.183594 739.621094 662.558594 739.621094 662.558594 C 739.621094 662.558594 715.105469 580.464844 712.101563 559.417969 C 709.09375 538.375 704.816406 535.945313 704.816406 535.945313 "/>
<path style=" stroke:none;fill-rule:nonzero;fill:rgb(50.19989%,25.099182%,38.798523%);fill-opacity:1;" d="M 649.78125 667.644531 L 637.96875 831.839844 C 637.96875 831.839844 657.296875 855.425781 702.621094 837.851563 C 747.945313 820.277344 802.058594 826.75 829.808594 850.335938 L 739.621094 662.558594 "/>
<g clip-path="url(#clip51)" clip-rule="nonzero">
<use xlink:href="#surface39" transform="matrix(1,0,0,1,556,546)" mask="url(#mask12)"/>
</g>
<path style=" stroke:none;fill-rule:nonzero;fill:rgb(7.499695%,11.399841%,23.098755%);fill-opacity:1;" d="M 881.148438 802.246094 C 881.148438 802.246094 849.234375 812.882813 854.789063 826.757813 C 860.335938 840.632813 924.628906 988.171875 946.363281 985.859375 C 968.101563 983.546875 1004.179688 961.8125 1000.011719 946.085938 C 995.851563 930.359375 930.636719 817.96875 930.636719 817.96875 C 930.636719 817.96875 917.226563 782.355469 881.148438 802.246094 "/>
<path style=" stroke:none;fill-rule:nonzero;fill:rgb(7.499695%,11.399841%,23.098755%);fill-opacity:1;" d="M 958.851563 985.859375 C 958.851563 992.757813 953.261719 998.347656 946.363281 998.347656 C 939.46875 998.347656 933.875 992.757813 933.875 985.859375 C 933.875 978.964844 939.46875 973.375 946.363281 973.375 C 953.261719 973.375 958.851563 978.964844 958.851563 985.859375 "/>
<path style=" stroke:none;fill-rule:nonzero;fill:rgb(40.39917%,28.599548%,42.698669%);fill-opacity:1;" d="M 871.214844 806.402344 L 965.796875 980.332031 L 970.683594 978.097656 L 874.980469 804.664063 Z M 871.214844 806.402344 "/>
<path style=" stroke:none;fill-rule:nonzero;fill:rgb(40.39917%,28.599548%,42.698669%);fill-opacity:1;" d="M 908.648438 846.628906 C 912.375 854.753906 910.753906 863.46875 905.023438 866.09375 C 899.296875 868.71875 891.632813 864.261719 887.910156 856.136719 C 884.1875 848.011719 885.8125 839.296875 891.539063 836.671875 C 897.265625 834.046875 904.925781 838.503906 908.648438 846.628906 "/>
<path style=" stroke:none;fill-rule:nonzero;fill:rgb(40.39917%,28.599548%,42.698669%);fill-opacity:1;" d="M 947.503906 921.09375 C 951.226563 929.21875 949.601563 937.933594 943.871094 940.558594 C 938.144531 943.183594 930.484375 938.722656 926.761719 930.597656 C 923.039063 922.476563 924.660156 913.761719 930.390625 911.136719 C 936.113281 908.511719 943.777344 912.96875 947.503906 921.09375 "/>
<path style=" stroke:none;fill-rule:nonzero;fill:rgb(7.499695%,11.399841%,23.098755%);fill-opacity:1;" d="M 783.328125 700.601563 L 862.515625 826.75 L 868.660156 818.886719 L 791.539063 696.203125 Z M 783.328125 700.601563 "/>
<path style=" stroke:none;fill-rule:evenodd;fill:rgb(7.798767%,10.998535%,25.099182%);fill-opacity:1;" d="M 605.964844 120.332031 C 600.117188 121.886719 602.277344 125.128906 602.46875 128.007813 C 602.988281 128.117188 603.511719 128.226563 604.035156 128.332031 C 604.679688 125.664063 605.320313 123 605.964844 120.332031 M 631.273438 103.128906 C 629.597656 107.433594 628.113281 111.25 626.628906 115.070313 C 633.421875 108.769531 633.460938 108.65625 631.273438 103.128906 M 497.28125 119.03125 C 496.808594 118.230469 496.332031 117.433594 495.859375 116.632813 C 493.578125 117.976563 490.890625 118.941406 489.164063 120.800781 C 488.023438 122.023438 488.261719 124.535156 487.882813 126.472656 L 489.84375 127.394531 C 492.324219 124.605469 494.804688 121.816406 497.28125 119.03125 M 543.519531 139.179688 C 537.398438 137.21875 529.445313 145.960938 528.285156 155.925781 C 537.195313 154.058594 542.195313 148.492188 543.519531 139.179688 M 662.394531 110.117188 C 671.789063 103.0625 684.929688 63.90625 680.945313 55.355469 C 670.40625 72.25 668.257813 91.0625 662.394531 110.117188 M 482.851563 176.914063 C 484.839844 161.144531 486.40625 145.460938 498.976563 133.796875 C 493.777344 134.609375 488.78125 133.351563 484.472656 138.203125 C 475.535156 148.269531 465.746094 157.574219 456.332031 167.222656 C 455.484375 168.089844 454.722656 169.089844 454.125 170.144531 C 448.320313 180.421875 446.230469 181.4375 434.742188 179.394531 C 434.625 178.421875 434.8125 177.261719 434.347656 176.496094 C 426.867188 164.238281 428.761719 151.054688 430.929688 138.0625 C 433.378906 123.382813 436.609375 108.835938 439.578125 93.835938 C 432.570313 92.039063 425.425781 89.847656 418.125 88.453125 C 412.203125 87.324219 406.074219 87.328125 400.089844 86.457031 C 398.320313 86.199219 396.734375 84.671875 395.0625 83.726563 C 396.34375 82.621094 397.449219 81.007813 398.9375 80.488281 C 411.988281 75.941406 424.53125 79.28125 437.007813 83.234375 C 438.34375 83.660156 439.65625 84.164063 441 84.570313 C 441.476563 84.714844 442.011719 84.675781 442.679688 84.730469 C 446.6875 73.929688 450.605469 63.121094 454.722656 52.386719 C 456.140625 48.683594 457.375 44.535156 462.78125 44.808594 C 467.863281 45.0625 470.015625 48.507813 468.3125 53.300781 C 464.277344 64.660156 460.449219 76.09375 456.382813 87.957031 C 477.019531 92.304688 492.703125 80.242188 509.898438 73.359375 C 509.5625 79.160156 505.652344 81.472656 502.007813 83.980469 C 489.199219 92.777344 474.734375 95.820313 459.546875 95.332031 C 454.191406 95.160156 452.28125 97.375 451.574219 101.882813 C 449.816406 113.144531 447.753906 124.375 446.484375 135.695313 C 445.453125 144.894531 445.285156 154.203125 445.023438 163.46875 C 444.980469 165.011719 446.234375 167.773438 447.171875 167.902344 C 448.90625 168.136719 451.339844 167.34375 452.617188 166.09375 C 459.882813 158.984375 466.957031 151.675781 473.964844 144.3125 C 477.449219 140.648438 480.789063 136.824219 483.882813 132.832031 C 484.589844 131.921875 484.238281 129.964844 483.980469 128.5625 C 482.511719 120.648438 486.40625 113.945313 493.585938 112.242188 C 498.386719 111.105469 500.273438 112.726563 499.609375 117.566406 C 499.375 119.289063 498.902344 121 498.347656 122.652344 C 497.863281 124.09375 497.105469 125.445313 496.074219 127.703125 C 498.316406 127.472656 499.796875 127.074219 501.21875 127.230469 C 503.585938 127.488281 507.15625 127.378906 507.960938 128.75 C 509.070313 130.644531 508.945313 134.242188 507.832031 136.277344 C 504.648438 142.09375 500.648438 147.460938 497.0625 153.0625 C 493.03125 159.371094 491.644531 166.570313 493.007813 175.285156 C 495.277344 174.4375 497.960938 174.230469 499.324219 172.78125 C 505.28125 166.460938 510.863281 159.785156 516.5625 153.21875 C 519.746094 149.550781 522.96875 145.90625 526.027344 142.132813 C 529.1875 138.238281 531.796875 133.828125 535.3125 130.304688 C 541.058594 124.546875 542.621094 124.597656 549.921875 127.929688 C 550.71875 128.292969 551.804688 128.046875 552.757813 128.023438 C 554.183594 127.988281 555.609375 127.902344 557.03125 127.839844 C 557.015625 129.363281 557.460938 131.089844 556.898438 132.371094 C 554.46875 137.914063 551.351563 143.179688 549.253906 148.832031 C 547.746094 152.898438 546.773438 157.429688 546.835938 161.734375 C 546.890625 165.414063 551.316406 166.039063 554.515625 162.789063 C 562.210938 154.984375 567.828125 145.824219 571.480469 135.480469 C 572.945313 131.332031 574.164063 125.738281 579.277344 126.273438 C 584.425781 126.808594 585.214844 132.515625 585.613281 137.050781 C 586.398438 145.941406 586.820313 154.863281 587.492188 163.765625 C 587.65625 165.972656 588.191406 168.152344 588.820313 171.90625 C 594.230469 165.519531 595.648438 158.839844 597.90625 152.644531 C 599.28125 148.878906 599.914063 144.84375 601.183594 141.027344 C 602.382813 137.425781 602.863281 134.574219 600.132813 130.933594 C 595.367188 124.585938 599.671875 114.898438 608.410156 112.5 L 608.410156 130.5 C 613.210938 129.0625 616.058594 127.4375 616.890625 122.160156 C 618.050781 114.804688 620.578125 107.636719 622.898438 100.507813 C 623.554688 98.484375 625.21875 96.492188 626.945313 95.171875 C 631.195313 91.929688 636.921875 93.699219 637.453125 98.960938 C 637.898438 103.375 636.515625 108.144531 635.136719 112.503906 C 634.273438 115.226563 632.390625 118.105469 630.136719 119.816406 C 623.109375 125.144531 625.539063 132.542969 625.457031 139.238281 C 625.382813 145.394531 628.410156 150.59375 633.144531 155.726563 C 641.414063 147.894531 649.179688 140.355469 649.222656 128.050781 C 649.285156 109.609375 652.355469 91.519531 659.140625 74.535156 C 662.742188 65.507813 669.320313 57.480469 675.464844 49.722656 C 679.421875 44.726563 682.203125 45.449219 686.246094 50.402344 C 686.648438 50.898438 687.117188 51.65625 687.023438 52.199219 C 685.5 60.953125 684.554688 69.886719 682.128906 78.390625 C 679.449219 87.757813 675.421875 96.746094 671.902344 105.867188 C 671.472656 106.976563 670.558594 107.910156 669.84375 108.90625 C 666.210938 113.980469 661.128906 118.304688 661.160156 125.296875 C 661.238281 140.746094 657.46875 156.640625 666.3125 171.09375 C 667.5 173.035156 668.730469 175.019531 670.285156 176.648438 C 673.464844 179.972656 678.15625 179.90625 682.15625 176.71875 C 683.664063 175.519531 685.128906 174.257813 686.578125 172.980469 C 687.941406 171.785156 689.257813 170.539063 691.566406 168.425781 C 687.855469 176.667969 677.503906 184.761719 670.5 185.757813 C 664.65625 186.59375 659.246094 183.335938 656.785156 175.882813 C 653.894531 167.125 652.082031 158.007813 649.851563 149.035156 C 649.441406 147.378906 649.269531 145.664063 648.828125 143.054688 C 644.910156 147.550781 641.414063 151.339844 638.179688 155.339844 C 635.125 159.109375 631.085938 161.710938 626.78125 159.511719 C 623.4375 157.804688 620.175781 154.175781 618.859375 150.660156 C 616.886719 145.386719 616.652344 139.464844 615.605469 133.410156 C 610.753906 135.648438 606.820313 137.328125 605.328125 143.625 C 602.800781 154.304688 598.589844 164.59375 594.886719 174.972656 C 594.140625 177.054688 592.65625 178.9375 591.257813 180.710938 C 588.167969 184.625 583.339844 184.207031 581.929688 179.394531 C 579.878906 172.371094 578.507813 165.09375 577.546875 157.832031 C 576.605469 150.722656 576.554688 143.496094 576.078125 136.324219 C 576.058594 136.035156 575.71875 135.769531 575.179688 135 C 573.371094 138.574219 571.394531 141.78125 570.078125 145.238281 C 566.292969 155.179688 559.226563 162.726563 552.226563 170.316406 C 547.925781 174.972656 541.972656 173.546875 539.992188 167.476563 C 539.347656 165.503906 539.125 163.363281 538.929688 161.277344 C 538.757813 159.433594 538.894531 157.558594 538.894531 155.085938 C 535.734375 157.636719 533.101563 160.136719 530.113281 162.089844 C 524.425781 165.808594 522.367188 164.722656 521.730469 158.078125 C 521.648438 157.246094 521.539063 156.414063 521.335938 154.632813 C 514.058594 161.605469 506.929688 167.683594 500.742188 174.605469 C 496.03125 179.871094 491.960938 181.351563 485.964844 177.832031 C 484.882813 177.199219 483.488281 177.09375 482.851563 176.914063 "/>
<path style=" stroke:none;fill-rule:evenodd;fill:rgb(7.798767%,10.998535%,25.099182%);fill-opacity:1;" d="M 542.949219 308.984375 C 539.582031 306.738281 537.550781 305.042969 535.214844 304.070313 C 534.640625 303.828125 533.085938 305.941406 531.980469 306.972656 C 534.117188 308.449219 536.160156 310.113281 538.457031 311.269531 C 539.0625 311.574219 540.460938 310.300781 542.949219 308.984375 M 621.710938 278.640625 C 622.351563 278.769531 622.996094 278.898438 623.640625 279.027344 C 624.859375 267.128906 631.617188 256.351563 628.726563 243.617188 C 626.390625 255.292969 624.046875 266.964844 621.710938 278.640625 M 697.242188 286.601563 C 706.355469 274.160156 716.722656 229.929688 714.324219 215.203125 C 701.015625 237.609375 699.492188 262.210938 697.242188 286.601563 M 664.605469 341.261719 C 667.152344 339.03125 669.882813 337.453125 671.472656 335.101563 C 676.359375 327.878906 681.316406 320.617188 685.230469 312.855469 C 687.320313 308.710938 687.316406 303.511719 688.292969 298.621094 C 671.019531 297.867188 657.777344 322.246094 664.605469 341.261719 M 611.851563 318.769531 C 605.0625 328.003906 598.699219 336.730469 592.25 345.390625 C 590.070313 348.3125 587.132813 351.265625 583.460938 349.257813 C 580.804688 347.800781 578.394531 344.730469 577.28125 341.839844 C 573.449219 331.886719 577.710938 322.566406 580.507813 313.203125 C 581.285156 310.59375 582.160156 308.015625 583.367188 304.25 C 577.289063 304.25 572.296875 304.160156 567.3125 304.339844 C 566.542969 304.367188 565.621094 305.496094 565.101563 306.324219 C 561.363281 312.261719 555.695313 315.21875 549.066406 316.15625 C 545.371094 316.679688 545.515625 319.277344 544.605469 321.664063 C 540.316406 332.921875 536.082031 344.207031 531.433594 355.316406 C 529.117188 360.867188 523.769531 362.425781 518.339844 362.417969 C 512.519531 362.40625 507.476563 360.621094 504.441406 354.734375 C 497.257813 340.789063 499.59375 327.171875 505.324219 313.636719 C 508.179688 306.890625 512.0625 300.820313 519.644531 298.5625 C 521.453125 298.023438 523.550781 298.4375 525.515625 298.410156 C 525.246094 300.703125 525.828125 303.75 524.570313 305.152344 C 518.316406 312.144531 517.324219 321.078125 515.324219 329.46875 C 513.710938 336.246094 513.460938 343.46875 519.199219 349.203125 C 522.800781 352.796875 527.691406 353.207031 529.738281 348.734375 C 533.859375 339.726563 537.128906 330.269531 539.988281 320.769531 C 541.238281 316.617188 536.589844 316.707031 534 315.777344 C 526.992188 313.261719 525.417969 307.113281 530.449219 301.503906 C 534.59375 296.882813 539.816406 297.175781 543.066406 302.507813 C 544.570313 304.980469 545.347656 307.894531 546.851563 311.578125 C 552.195313 308.683594 557.402344 305.859375 562.800781 302.933594 C 561.742188 300.628906 560.507813 299.203125 560.601563 297.878906 C 560.808594 295.074219 561.027344 291.824219 562.5625 289.726563 C 563.597656 288.3125 566.964844 288.027344 569.152344 288.300781 C 570.066406 288.417969 571.171875 291.269531 571.261719 292.929688 C 571.644531 300.144531 573.167969 301.410156 580.101563 299.097656 C 582.902344 298.164063 585.417969 296.378906 588.222656 295.460938 C 590.203125 294.816406 592.871094 294.207031 594.445313 295.046875 C 595.636719 295.6875 596.378906 298.84375 595.949219 300.53125 C 594.320313 306.976563 592.003906 313.246094 590.199219 319.652344 C 588.96875 324.027344 587.847656 328.488281 587.34375 332.988281 C 587.171875 334.523438 588.6875 336.816406 590.101563 337.726563 C 590.855469 338.214844 593.65625 336.914063 594.46875 335.703125 C 599.515625 328.175781 604.347656 320.492188 609.046875 312.738281 C 609.980469 311.191406 610.375 309.128906 610.46875 307.277344 C 611.019531 296.121094 611.496094 284.960938 611.84375 273.796875 C 612.347656 257.558594 617.445313 242.820313 626.324219 229.355469 C 628.171875 226.554688 630.265625 222.339844 634.339844 224.257813 C 637.734375 225.851563 637.429688 229.859375 637.03125 233.628906 C 634.882813 254.195313 628.851563 273.753906 622.195313 293.179688 C 621.636719 294.816406 621.117188 296.601563 621.171875 298.296875 C 621.761719 316.726563 624.644531 334.566406 634.316406 350.773438 C 636.503906 354.4375 638.921875 354.421875 641.53125 352.121094 C 647.007813 347.296875 651.140625 342.371094 649.714844 333.675781 C 646.769531 315.660156 653.554688 301.027344 669.21875 291.597656 C 674.238281 288.574219 680.914063 288.300781 687.539063 286.589844 C 688.761719 279.027344 690.269531 269.78125 691.753906 260.53125 C 694.21875 245.171875 698.6875 230.484375 706.21875 216.796875 C 708.285156 213.039063 710.71875 208.34375 715.1875 209.535156 C 717.105469 210.050781 718.484375 216.175781 718.464844 219.738281 C 718.359375 236.585938 713.1875 252.5625 708.816406 268.601563 C 705.6875 280.070313 701.582031 291.273438 697.976563 302.613281 C 697.398438 304.425781 696.628906 306.417969 696.867188 308.203125 C 699.148438 325.308594 701.691406 342.363281 713.625 356.113281 C 716.050781 358.902344 716.308594 361.957031 713.640625 364.589844 C 710.613281 367.574219 707.414063 365.75 705.316406 363.453125 C 698.480469 355.957031 693.820313 347.167969 691.449219 337.257813 C 690.316406 332.527344 689.371094 327.75 688.128906 322.003906 C 686.503906 324.238281 685.265625 325.660156 684.34375 327.261719 C 680.140625 334.535156 676.039063 341.863281 671.882813 349.164063 C 669.554688 353.246094 660.136719 353.425781 656.710938 348.84375 C 653.671875 344.777344 651.925781 345.941406 649.691406 349.136719 C 647.085938 352.859375 644.585938 356.667969 641.765625 360.226563 C 636.199219 367.246094 631.648438 367.097656 626.226563 359.949219 C 618.140625 349.285156 614.601563 336.898438 612.59375 323.933594 C 612.339844 322.304688 612.121094 320.664063 611.851563 318.769531 "/>
<path style=" stroke:none;fill-rule:evenodd;fill:rgb(7.798767%,10.998535%,25.099182%);fill-opacity:1;" d="M 430.097656 354.300781 C 434.703125 341.492188 439.316406 328.6875 443.898438 315.871094 C 444.246094 314.886719 444.242188 313.769531 444.613281 312.800781 C 446.035156 309.074219 446.929688 304.554688 452.234375 304.796875 C 457.359375 305.03125 456.535156 309.753906 457.191406 312.820313 C 459.691406 324.472656 461.648438 336.238281 464.121094 347.898438 C 465.679688 355.238281 468.242188 362.242188 474.058594 369.011719 C 475.378906 364.097656 476.996094 360.179688 477.421875 356.132813 C 479.472656 336.597656 481.128906 317.023438 483.074219 297.476563 C 484.289063 285.28125 485.671875 273.097656 487.230469 260.945313 C 487.421875 259.464844 489.195313 258.191406 490.238281 256.820313 C 491.050781 258.386719 492.535156 259.941406 492.570313 261.523438 C 492.785156 272.054688 493.296875 282.628906 492.574219 293.109375 C 491.085938 314.789063 488.964844 336.429688 486.898438 358.066406 C 486.535156 361.859375 485.402344 365.636719 484.210938 369.289063 C 481.410156 377.863281 471.8125 380.828125 464.6875 375.214844 C 456.972656 369.140625 453.402344 360.523438 451.644531 351.234375 C 449.953125 342.3125 448.949219 333.261719 446.820313 323.753906 C 445.277344 327.585938 443.566406 331.363281 442.230469 335.265625 C 438.890625 345.027344 435.996094 354.953125 432.382813 364.609375 C 429.644531 371.9375 425.542969 373.78125 419.589844 371.601563 C 415.320313 370.035156 413.933594 366.429688 413.472656 362.515625 C 411.386719 344.804688 411.070313 327.105469 415.835938 309.738281 C 419.832031 295.179688 424.148438 280.679688 434.285156 268.863281 C 438.753906 263.648438 442.710938 262.964844 447.46875 266.171875 C 450.359375 268.121094 450.441406 270.160156 448.414063 272.730469 C 431.679688 293.945313 426.78125 318.503906 428.078125 344.820313 C 428.226563 347.855469 428.097656 350.902344 428.097656 353.941406 C 428.765625 354.058594 429.433594 354.179688 430.097656 354.300781 "/>
<path style=" stroke:none;fill-rule:evenodd;fill:rgb(7.798767%,10.998535%,25.099182%);fill-opacity:1;" d="M 531.773438 214.183594 C 536.144531 213.597656 540.066406 213.070313 544.734375 212.445313 C 544.734375 209.398438 545.207031 206.394531 544.625 203.613281 C 543.753906 199.472656 546.605469 198.492188 549.195313 198.15625 C 550.058594 198.046875 552.097656 201.144531 552.320313 202.9375 C 553.574219 212.839844 554.566406 222.785156 555.285156 232.742188 C 555.398438 234.320313 553.535156 237.484375 552.855469 237.410156 C 550.816406 237.191406 547.695313 236.144531 547.195313 234.675781 C 545.921875 230.929688 545.515625 226.789063 545.390625 222.789063 C 545.277344 219.195313 543.777344 218.15625 540.527344 218.582031 C 538.617188 218.835938 536.480469 218.488281 534.835938 219.25 C 533.558594 219.835938 532.035156 221.765625 532.097656 223.027344 C 532.265625 226.476563 533.5625 229.871094 533.710938 233.316406 C 533.796875 235.289063 532.976563 237.761719 531.65625 239.140625 C 530.972656 239.859375 527.871094 239.246094 526.664063 238.257813 C 525.039063 236.921875 523.296875 234.707031 523.152344 232.761719 C 522.480469 223.519531 522.082031 214.242188 522.195313 204.984375 C 522.222656 202.796875 524.605469 200.636719 525.90625 198.460938 C 527.671875 200.609375 530.105469 202.507813 531.023438 204.96875 C 532.007813 207.597656 531.5625 210.761719 531.773438 214.183594 "/>
<path style=" stroke:none;fill-rule:evenodd;fill:rgb(7.798767%,10.998535%,25.099182%);fill-opacity:1;" d="M 568.878906 204.320313 C 569.09375 207.878906 569.246094 210.414063 569.375 212.515625 C 573.367188 213.285156 576.941406 213.609375 580.175781 214.835938 C 581.078125 215.179688 580.960938 218.203125 581.421875 220.585938 C 577.472656 220.777344 574.242188 220.9375 569.710938 221.160156 C 570.976563 223.96875 571.746094 227.8125 572.9375 227.949219 C 577.210938 228.429688 582.207031 229.476563 584.832031 223.734375 C 585.285156 223.914063 585.738281 224.089844 586.191406 224.269531 C 586.375 227.546875 586.761719 230.832031 586.589844 234.085938 C 586.546875 234.878906 584.714844 236.117188 583.621094 236.214844 C 578.390625 236.679688 573.109375 237.191406 567.894531 236.878906 C 566.160156 236.773438 563.410156 234.46875 563.109375 232.808594 C 561.378906 223.347656 560.125 213.792969 558.96875 204.238281 C 558.429688 199.785156 560.738281 197.257813 565.308594 197.105469 C 569.335938 196.96875 573.417969 196.519531 577.378906 196.996094 C 579.761719 197.285156 582.324219 198.695313 584.078125 200.367188 C 584.886719 201.136719 584.179688 203.808594 583.636719 205.441406 C 583.523438 205.789063 581.121094 205.421875 579.777344 205.308594 C 576.320313 205.015625 572.867188 204.683594 568.878906 204.320313 "/>
<path style=" stroke:none;fill-rule:evenodd;fill:rgb(7.798767%,10.998535%,25.099182%);fill-opacity:1;" d="M 501.199219 199.558594 C 503.480469 199.558594 505.773438 199.722656 508.03125 199.523438 C 512.964844 199.085938 514.566406 201.695313 514.59375 206.117188 C 514.628906 211.089844 513.53125 211.894531 509.160156 209.867188 C 505.660156 208.242188 503.441406 209.578125 503.40625 213.746094 C 503.347656 220.207031 503.492188 226.671875 503.816406 233.125 C 503.96875 236.191406 504.101563 239.0625 500.136719 239.25 C 496.035156 239.441406 495.414063 236.582031 495.476563 233.230469 C 495.601563 226.773438 495.714844 220.308594 495.570313 213.851563 C 495.539063 212.34375 494.453125 210.863281 493.851563 209.371094 C 492.441406 210.085938 491.097656 211.074219 489.597656 211.449219 C 487.929688 211.863281 485.46875 212.492188 484.5 211.675781 C 481.800781 209.386719 484.550781 201.25 488.117188 200.703125 C 492.441406 200.042969 496.828125 199.8125 501.183594 199.398438 C 501.191406 199.449219 501.195313 199.503906 501.199219 199.558594 "/>
<path style=" stroke:none;fill-rule:evenodd;fill:rgb(7.798767%,10.998535%,25.099182%);fill-opacity:1;" d="M 463.851563 224.210938 C 461.148438 223.957031 458.332031 223.902344 455.617188 223.347656 C 454.484375 223.117188 452.90625 221.949219 452.730469 220.988281 C 452.539063 219.921875 453.421875 217.960938 454.359375 217.523438 C 457.144531 216.226563 460.136719 214.945313 463.140625 214.675781 C 466.578125 214.363281 470.167969 214.875 473.582031 215.574219 C 475.046875 215.875 477.304688 217.582031 477.277344 218.601563 C 477.242188 220.066406 475.703125 222.371094 474.355469 222.757813 C 471.035156 223.710938 467.457031 223.773438 463.851563 224.210938 "/>
<path style=" stroke:none;fill-rule:evenodd;fill:rgb(7.798767%,10.998535%,25.099182%);fill-opacity:1;" d="M 607.339844 220.113281 C 605.769531 220.113281 604.050781 220.523438 602.671875 220.011719 C 601.003906 219.390625 599.625 217.996094 598.121094 216.9375 C 599.226563 215.390625 600.148438 212.710938 601.464844 212.503906 C 606.570313 211.691406 611.804688 211.484375 616.988281 211.507813 C 617.988281 211.511719 619.761719 213.523438 619.785156 214.640625 C 619.820313 216.011719 618.671875 218.28125 617.542969 218.640625 C 614.300781 219.675781 610.8125 219.945313 607.421875 220.519531 C 607.394531 220.386719 607.363281 220.25 607.339844 220.113281 "/>
</g>
</svg>
