<?xml version="1.0" standalone="no"?>
<!DOCTYPE svg PUBLIC "-//W3C//DTD SVG 20010904//EN"
 "http://www.w3.org/TR/2001/REC-SVG-20010904/DTD/svg10.dtd">
<svg version="1.0" xmlns="http://www.w3.org/2000/svg"
 width="512.000000pt" height="512.000000pt" viewBox="0 0 512.000000 512.000000"
 preserveAspectRatio="xMidYMid meet">
<metadata>
Created by potrace 1.14, written by Peter Selinger 2001-2017
</metadata>
<g transform="translate(0.000000,512.000000) scale(0.100000,-0.100000)"
fill="#000000" stroke="none">
<path d="M2836 5053 c-1 -1 -25 -5 -52 -7 -61 -6 -116 -14 -174 -28 -56 -13
-90 -19 -112 -21 -10 -1 -18 -5 -18 -10 0 -5 -9 -7 -20 -4 -10 3 -20 2 -22 -2
-2 -4 -37 -17 -78 -29 -41 -13 -79 -24 -85 -26 -13 -4 -37 -13 -105 -39 -30
-12 -61 -22 -68 -23 -7 -2 -24 -10 -38 -19 -13 -9 -29 -13 -34 -10 -6 3 -10 1
-10 -4 0 -6 -5 -11 -11 -11 -16 0 -193 -83 -201 -95 -4 -5 -8 -6 -8 -2 0 5
-16 -1 -35 -13 -19 -12 -35 -18 -35 -13 0 4 -4 3 -8 -3 -4 -6 -44 -30 -89 -54
-46 -24 -83 -48 -83 -53 0 -4 -4 -6 -9 -3 -5 3 -14 -1 -21 -9 -7 -8 -19 -15
-26 -15 -8 0 -14 -4 -14 -9 0 -5 -13 -14 -30 -21 -16 -7 -30 -16 -30 -21 0 -5
-7 -9 -15 -9 -8 0 -15 -4 -15 -10 0 -5 -5 -10 -10 -10 -6 0 -16 -5 -23 -10
-26 -23 -137 -100 -143 -100 -4 0 -17 -11 -30 -25 -13 -14 -27 -25 -33 -25 -5
0 -20 -9 -33 -20 -66 -57 -84 -70 -95 -70 -7 0 -13 -4 -13 -9 0 -9 -90 -78
-101 -77 -3 1 -17 -11 -31 -26 -14 -16 -29 -28 -34 -28 -5 0 -23 -13 -40 -29
-16 -16 -40 -32 -53 -36 -12 -4 -20 -9 -17 -12 6 -6 -79 -63 -94 -63 -6 0 -10
-4 -10 -9 0 -5 -35 -31 -78 -57 -42 -26 -80 -53 -84 -58 -4 -6 -8 -8 -8 -3 0
11 -80 -44 -80 -55 0 -5 -4 -6 -10 -3 -5 3 -12 -7 -16 -22 -4 -15 -13 -35 -20
-43 -7 -8 -13 -18 -12 -23 0 -4 -4 -26 -8 -50 -14 -75 -7 -139 30 -272 2 -5 8
-23 14 -38 7 -16 12 -33 12 -38 0 -5 5 -9 10 -9 6 0 10 -5 10 -11 0 -16 54
-91 94 -130 l36 -35 -50 -47 c-28 -26 -55 -47 -61 -47 -5 0 -8 -3 -6 -7 5 -8
-18 -34 -24 -28 -2 1 -10 -3 -17 -11 -7 -8 -11 -14 -9 -14 2 0 -15 -20 -39
-44 -61 -64 -83 -130 -80 -241 3 -82 7 -114 22 -170 9 -33 77 -169 91 -183 15
-15 11 -18 -74 -76 -24 -16 -40 -32 -37 -37 3 -5 2 -9 -3 -9 -11 0 -34 -55
-41 -98 -11 -68 -3 -222 11 -222 4 0 7 -6 5 -12 -3 -14 49 -149 60 -158 4 -3
16 -21 26 -40 54 -97 184 -182 269 -175 43 3 85 20 99 40 12 16 24 -8 27 -51
1 -7 17 -34 36 -62 27 -39 31 -51 20 -56 -22 -8 -19 -19 16 -55 17 -18 28 -38
26 -46 -3 -7 -36 -27 -74 -46 -90 -43 -133 -71 -133 -86 0 -7 -6 -13 -12 -13
-7 0 -4 -6 7 -14 31 -21 72 -28 310 -51 22 -2 40 -4 40 -5 0 -1 11 -3 25 -6
14 -2 45 -10 70 -18 25 -8 60 -17 77 -21 35 -7 52 -23 35 -34 -29 -18 -11 -96
32 -133 72 -64 216 -39 216 37 0 24 0 24 41 10 22 -8 43 -14 47 -14 4 1 9 0
12 -1 3 -1 19 -3 35 -5 17 -2 53 -7 80 -11 28 -5 134 -8 238 -8 103 0 187 -3
187 -6 0 -3 15 -11 33 -18 17 -7 39 -17 48 -22 18 -9 79 -4 92 9 4 4 16 23 25
42 9 19 20 33 24 32 4 -1 36 5 70 14 35 8 74 16 88 18 14 2 25 4 25 5 0 1 10
3 22 6 15 2 26 -3 33 -15 5 -11 23 -22 40 -26 39 -8 100 11 102 33 0 9 2 23 2
31 2 26 97 44 281 53 6 0 37 -3 70 -7 33 -4 67 -7 75 -7 8 0 53 -9 100 -19 75
-16 190 -30 270 -33 14 -1 32 -11 42 -25 27 -39 66 -49 179 -47 122 2 205 25
252 69 29 27 48 33 133 41 17 2 36 6 43 10 6 4 11 5 11 2 0 -2 13 -1 30 4 22
6 34 5 44 -6 26 -26 70 -36 151 -33 85 3 191 33 220 62 9 10 21 17 26 17 5 0
8 3 7 8 -1 4 6 32 15 61 10 30 20 91 23 135 7 101 6 97 26 119 17 20 19 100 2
116 -24 24 -244 28 -332 6 -21 -5 -23 -3 -17 27 3 18 7 43 8 56 1 12 4 22 8
22 4 0 6 16 5 36 -1 20 2 38 6 41 5 2 6 9 3 14 -4 5 -8 18 -10 30 -2 11 -18
33 -35 49 -16 15 -30 35 -30 44 0 20 -28 35 -52 28 -20 -5 -68 16 -68 29 0 7
54 25 95 33 41 8 125 43 148 62 36 30 41 30 77 -5 25 -24 30 -35 27 -64 -4
-37 7 -67 19 -54 12 12 15 49 4 42 -6 -3 -7 1 -4 9 8 20 8 20 80 -3 51 -17
148 -39 194 -44 8 -1 26 -18 40 -37 20 -28 25 -32 28 -17 2 10 -3 26 -11 35
-14 15 -20 43 -32 150 -3 23 0 32 11 32 19 0 18 13 -5 39 -11 13 -23 36 -26
52 -4 16 -11 31 -16 34 -5 4 -9 12 -9 20 0 8 -5 26 -12 42 -6 15 -11 31 -10
35 1 4 -6 24 -14 44 -9 21 -18 47 -20 58 -2 12 -11 50 -20 84 -8 35 -13 70
-10 78 3 8 2 14 -3 14 -11 0 -8 31 6 56 10 18 9 24 -7 39 -12 10 -20 13 -20 7
0 -7 -3 -11 -7 -10 -5 0 -16 -2 -25 -6 -14 -7 -164 32 -156 40 4 3 79 16 98
16 8 1 24 8 34 17 11 9 16 10 12 4 -8 -15 10 -18 19 -3 3 6 17 10 30 10 13 0
27 4 30 10 3 5 22 17 41 26 33 16 133 104 118 104 -4 0 3 11 16 25 13 14 20
25 16 25 -5 0 -4 6 2 13 16 19 38 127 36 177 -3 70 -25 164 -52 220 -9 19 -16
38 -17 41 0 3 -19 35 -42 71 -52 80 -98 122 -176 158 -50 24 -56 30 -40 38 10
6 20 10 23 10 15 -2 50 15 50 23 0 6 4 8 9 4 5 -3 12 -1 16 5 4 6 11 8 16 5 5
-4 9 -1 9 5 0 6 5 8 10 5 6 -3 10 -1 10 4 0 6 5 11 11 11 14 0 129 81 129 91
0 4 9 11 21 14 11 4 18 9 15 13 -4 3 3 15 13 26 11 12 20 23 20 26 0 3 5 19
11 35 7 17 14 46 16 65 8 69 9 100 4 100 -3 0 -6 21 -8 47 -1 25 -6 51 -11 57
-5 6 -10 16 -10 21 -2 18 -24 80 -32 91 -5 6 -6 14 -2 17 3 4 2 7 -4 7 -9 0
-28 43 -20 46 1 0 -5 7 -13 16 -8 8 -26 30 -40 48 -29 39 -37 46 -81 80 -18
14 -36 24 -41 22 -4 -1 -8 3 -8 10 0 6 -3 8 -7 5 -3 -4 -12 -2 -20 4 -7 6 -13
9 -13 5 0 -3 -11 -1 -26 4 -40 16 -81 21 -199 25 -60 3 -112 5 -115 6 -27 5
-310 -12 -405 -25 -107 -15 -118 -16 -126 -22 -5 -3 -9 0 -9 7 0 8 -4 8 -13 1
-7 -6 -39 -14 -72 -17 -75 -9 -93 -12 -105 -20 -6 -4 -10 14 -10 47 -1 65 -8
120 -23 173 -6 22 -11 42 -12 45 -1 7 -62 129 -79 157 -7 13 -16 20 -19 16 -4
-3 -7 -1 -7 5 0 6 -16 26 -36 44 -20 18 -45 41 -55 51 -10 9 -20 17 -21 16 -3
0 -48 17 -88 34 -14 5 -36 12 -49 14 -14 2 -33 9 -44 15 -15 8 -18 7 -12 -3 6
-8 4 -10 -6 -3 -8 4 -21 10 -29 12 -19 4 -230 9 -234 5z"/>
<path d="M750 435 l0 -255 61 0 c89 0 132 30 145 99 9 45 -11 142 -31 154 -13
7 -13 12 6 38 15 21 21 45 21 83 1 94 -44 132 -159 135 l-43 1 0 -255z m120
156 c18 -35 12 -89 -11 -101 -11 -7 -23 -9 -26 -6 -4 4 -7 68 -4 114 1 19 29
14 41 -7z m0 -207 c21 -55 3 -134 -32 -134 -4 0 -8 36 -8 80 0 65 3 80 15 80
9 0 20 -12 25 -26z"/>
<path d="M1390 655 c0 -33 2 -35 35 -35 33 0 35 2 35 35 0 33 -2 35 -35 35
-33 0 -35 -2 -35 -35z"/>
<path d="M2332 674 c-33 -23 -50 -64 -47 -112 3 -41 16 -68 89 -186 38 -64 45
-106 21 -126 -19 -16 -45 3 -45 34 0 32 -12 44 -40 40 -14 -1 -29 -3 -33 -3
-13 -1 0 -81 17 -106 31 -47 124 -57 158 -17 57 68 44 133 -62 299 -33 53 -41
96 -22 115 8 8 15 8 26 -1 9 -7 15 -16 14 -19 -4 -31 4 -42 30 -42 42 0 51 15
39 61 -17 69 -91 101 -145 63z"/>
<path d="M2788 683 c-18 -5 -37 -45 -40 -87 -2 -18 -9 -31 -20 -34 -12 -3 -18
-14 -18 -33 0 -25 8 -33 30 -31 3 0 5 -63 5 -141 0 -178 -1 -177 40 -177 l32
0 1 143 c1 180 1 177 10 176 22 -4 28 4 24 31 -3 20 -10 30 -21 30 -25 0 -15
61 10 67 13 4 19 14 19 34 0 25 -4 29 -27 28 -16 -1 -35 -3 -45 -6z"/>
<path d="M3280 655 c0 -33 2 -35 35 -35 33 0 35 2 35 35 0 33 -2 35 -35 35
-33 0 -35 -2 -35 -35z"/>
<path d="M3818 683 c-2 -5 -4 -118 -3 -253 l0 -245 88 -3 87 -3 0 36 0 35 -49
0 -48 0 1 220 1 220 -37 0 c-20 0 -38 -3 -40 -7z"/>
<path d="M4290 663 c1 -16 2 -49 1 -76 l-1 -47 -25 16 c-23 15 -27 15 -50 0
-30 -19 -27 -6 -30 -181 -2 -140 1 -160 31 -189 14 -14 18 -14 45 -1 16 9 29
12 29 7 0 -11 69 -14 71 -4 4 21 5 479 1 490 -2 6 -20 12 -39 12 -31 0 -34 -2
-33 -27z m-4 -174 c9 -16 9 -223 0 -238 -5 -8 -12 -9 -19 -2 -10 8 -15 169 -8
239 1 15 17 16 27 1z"/>
<path d="M4030 606 c0 -34 -4 -46 -15 -46 -8 0 -15 -3 -16 -7 0 -5 -2 -18 -3
-30 -2 -14 4 -25 15 -28 15 -5 18 -23 21 -141 3 -134 3 -136 30 -159 17 -15
38 -23 55 -22 25 2 28 7 31 41 2 21 -1 36 -5 33 -5 -3 -15 -2 -23 3 -12 7 -15
36 -16 125 -2 118 0 122 39 116 4 0 7 15 7 34 0 19 -3 34 -7 34 -33 -5 -41 3
-40 44 1 41 0 42 -36 45 l-37 3 0 -45z"/>
<path d="M3449 558 c-29 -10 -56 -53 -53 -85 1 -13 2 -32 3 -43 0 -11 24 -45
51 -75 50 -55 66 -104 40 -120 -15 -9 -40 14 -40 36 0 15 -7 19 -35 19 -34 0
-35 -1 -30 -32 16 -90 137 -113 173 -33 26 57 9 106 -63 182 -25 26 -35 46
-33 63 4 31 38 41 38 11 0 -17 6 -21 36 -21 34 0 35 1 30 31 -9 58 -59 86
-117 67z"/>
<path d="M1035 538 c-15 -14 -28 -38 -31 -58 -6 -35 -5 -36 30 -38 32 -2 36 0
36 22 0 24 16 44 26 33 10 -9 14 -62 6 -72 -4 -6 -24 -21 -44 -35 -58 -38 -81
-110 -57 -178 13 -39 39 -48 78 -28 19 10 31 12 33 5 2 -6 18 -12 36 -13 l32
-2 0 154 c0 119 -4 161 -16 187 -23 50 -85 61 -129 23z m73 -238 c-3 -48 -17
-68 -39 -54 -24 14 4 104 32 104 5 0 8 -22 7 -50z"/>
<path d="M1220 369 l0 -189 35 0 35 0 0 138 c0 75 4 143 8 149 4 7 19 14 32
16 21 3 26 10 28 40 3 31 0 37 -17 37 -11 0 -27 -10 -35 -22 -16 -22 -16 -22
-16 -1 0 17 -6 21 -35 21 l-35 0 0 -189z"/>
<path d="M1390 370 l0 -190 35 0 35 0 0 190 0 190 -35 0 -35 0 0 -190z"/>
<path d="M1510 369 l0 -189 35 0 34 0 3 152 c3 135 5 153 20 156 16 3 17 -9
17 -130 -1 -195 -5 -178 36 -178 l36 0 -1 168 c-1 127 -5 172 -16 190 -17 26
-50 29 -76 5 -16 -14 -18 -14 -18 -1 0 12 -10 16 -35 16 l-35 0 0 -189z"/>
<path d="M1777 549 c-9 -5 -24 -24 -33 -40 -20 -40 -17 -163 6 -203 15 -28 15
-31 -2 -48 -22 -22 -23 -51 -3 -72 14 -13 13 -17 -9 -39 -27 -28 -26 -55 4
-82 25 -23 116 -28 157 -8 52 24 68 110 27 144 -8 7 -38 17 -66 24 -63 14 -72
30 -24 44 61 16 71 34 74 132 3 76 7 89 23 94 13 4 19 16 19 36 0 33 -6 35
-38 13 -20 -14 -24 -14 -44 0 -26 18 -65 20 -91 5z m65 -69 c2 -5 1 -41 0 -80
-3 -60 -6 -71 -20 -68 -14 3 -17 17 -19 68 -2 36 -1 71 2 78 5 14 32 16 37 2z
m31 -337 c12 -7 8 -33 -5 -35 -73 -9 -102 6 -73 36 15 15 51 14 78 -1z"/>
<path d="M1993 536 l-28 -24 0 -147 0 -147 28 -24 c40 -34 82 -32 118 7 l29
31 0 135 0 135 -29 29 c-37 36 -79 38 -118 5z m74 -53 c3 -9 6 -65 6 -125 1
-84 -3 -112 -14 -118 -8 -5 -18 -5 -23 0 -9 9 -10 235 -1 251 9 14 25 11 32
-8z"/>
<path d="M2563 544 c-18 -9 -35 -24 -38 -34 -15 -46 -13 -59 6 -65 27 -9 62 4
55 20 -5 15 17 39 27 28 12 -11 8 -83 -4 -83 -20 0 -69 -41 -85 -73 -9 -17
-16 -51 -16 -75 2 -80 48 -116 91 -73 19 19 20 19 26 1 4 -13 13 -18 33 -15
15 2 29 4 32 4 4 1 5 231 1 314 -1 26 -46 67 -73 67 -13 0 -37 -8 -55 -16z
m58 -221 c3 -68 -10 -95 -34 -74 -21 17 -1 101 24 101 5 0 10 -12 10 -27z"/>
<path d="M2919 529 c-17 -18 -29 -42 -29 -58 0 -24 4 -27 35 -28 30 -1 35 3
35 23 0 22 16 41 26 31 13 -13 14 -66 2 -75 -7 -6 -33 -28 -57 -49 -40 -36
-44 -44 -46 -93 -6 -95 43 -142 95 -90 16 16 20 17 20 5 0 -15 3 -16 43 -18
22 -1 22 0 25 161 l3 163 -30 30 c-40 40 -83 39 -122 -2z m78 -230 c-6 -57
-10 -64 -32 -56 -20 8 -20 56 1 85 25 37 36 27 31 -29z"/>
<path d="M3110 370 l0 -190 35 0 35 0 0 138 c0 75 4 143 8 149 4 7 19 14 32
16 21 3 26 10 28 40 4 41 -9 47 -46 21 -18 -12 -22 -13 -22 -1 0 9 -12 14 -35
15 l-35 1 0 -189z"/>
<path d="M3280 370 l0 -190 35 0 35 0 0 190 0 190 -35 0 -35 0 0 -190z"/>
<path d="M3599 243 c-5 -57 -5 -58 34 -61 l37 -3 0 41 c0 40 0 41 -35 38 -20
-1 -35 -8 -36 -15z"/>
</g>
</svg>
